<svg width="440" height="440" viewBox="0 0 440 440" fill="none" xmlns="http://www.w3.org/2000/svg">
<mask id="mask0_501_3346" style="mask-type:luminance" maskUnits="userSpaceOnUse" x="0" y="0" width="440" height="440">
<path d="M0 0H440V440H0V0Z" fill="white"/>
</mask>
<g mask="url(#mask0_501_3346)">
<path d="M58.6621 0C42.279 0 29.3425 13.2122 29.3425 29.3195V151.469C18.7958 154.939 11.6497 161.602 7.10011 169.047C1.76928 177.824 0 187.406 0 195.471V257.879C0 270.861 5.92825 286.831 11.4199 302.341C14.2232 310.084 16.9346 317.621 18.9106 323.871C20.8867 330.144 22.0126 334.854 22.0126 337.29V364.932C17.532 368.953 14.6598 374.72 14.6598 381.315V418.033C14.6598 430.257 24.6091 440 36.6724 440H139.337C151.4 440 161.326 430.395 161.326 418.033V381.315C161.326 372.606 156.294 364.932 148.689 361.393C149.907 356.338 152.549 349.652 155.421 341.564C158.776 332.12 162.292 320.861 163.371 308.039H255.857L275.457 347.331C268.632 351.076 264.014 358.176 264.014 366.655V403.374C264.014 415.437 273.733 425.317 286.003 425.317H388.668C400.938 425.317 410.68 415.437 410.68 403.374V366.655C410.68 357.832 405.51 350.203 397.836 346.642L408.865 308.039H410.68C426.788 308.039 440 294.965 440 278.651V29.3195C440 13.2122 427.087 0 410.68 0H58.6621ZM58.6621 14.6598H410.68C418.769 14.6598 425.34 21.0705 425.34 29.3195V278.651C425.34 286.9 418.7 293.356 410.68 293.356V51.3322C410.68 39.2459 400.961 29.3195 388.668 29.3195H80.6747C68.3357 29.3195 58.6621 39.2459 58.6621 51.3322V175.986C53.3312 175.986 48.3681 177.365 44.0023 179.915V29.3195C44.0023 21.0705 50.5739 14.6598 58.6621 14.6598ZM80.6747 44.0023H388.668C392.643 44.0023 395.998 47.1273 395.998 51.3322V221.252C393.677 220.402 391.264 219.989 388.668 219.989C385.037 219.989 383.199 220.563 380.534 221.528C379.155 214.75 371.412 205.26 359.325 205.329C353.88 205.375 350.479 207.121 348.526 208.155C345.975 204.019 340.047 198.022 330.006 198.022C326.72 198.022 324.583 198.573 322.63 199.263V175.986H374.123C383.888 175.986 383.888 161.326 374.123 161.326H322.63V139.337C322.63 136.717 322.239 134.282 321.412 131.984H338.599C341.586 140.463 349.629 146.667 359.302 146.667C371.641 146.667 381.338 136.717 381.338 124.654C381.338 112.591 371.526 102.664 359.302 102.664C349.721 102.664 341.655 108.845 338.599 117.278H212.636C202.847 117.278 202.847 131.984 212.636 131.984H279.937C279.087 134.282 278.674 136.763 278.674 139.337V161.326H262.75C259.694 152.848 251.744 146.69 241.955 146.69C232.19 146.69 224.285 152.848 221.252 161.326H212.751C202.962 161.326 202.962 175.986 212.751 175.986H221.229C224.239 184.465 232.121 190.623 241.955 190.623C251.859 190.623 259.763 184.465 262.75 175.986H278.674V236.693L270.034 221.643C262.98 209.419 247.355 205.099 234.947 212.268C222.378 219.529 219.322 234.763 225.342 246.918L233.913 263.991H103.652C98.3216 257.189 93.0367 251.836 88.0505 245.425V205.329C88.0505 194.552 82.2831 185.131 73.3678 179.892V51.3322C73.3678 47.2881 76.4698 44.0023 80.6747 44.0023ZM242.001 58.6621C232.373 58.6621 224.239 64.8431 221.229 73.3678H212.659C202.893 73.3678 202.893 88.0276 212.659 88.0276H221.252C224.285 96.4834 232.35 102.664 242.001 102.664C251.675 102.664 259.717 96.4834 262.75 88.0276H374.123C383.888 88.0276 383.888 73.3678 374.123 73.3678H262.75C259.832 64.889 251.629 58.6621 242.001 58.6621ZM139.337 65.992C137.59 65.992 135.936 66.6124 134.649 67.7153L90.647 104.388C83.1103 110.638 92.5542 121.92 100.045 115.601L102.641 113.464V139.337C92.8988 139.36 92.8988 153.997 102.664 153.997H176.009C185.775 153.997 185.775 139.337 176.009 139.337V113.441L178.629 115.601C186.119 121.92 195.563 110.638 188.027 104.388L144.024 67.7153C142.737 66.6124 141.083 65.992 139.337 65.992ZM242.001 73.3218C245.976 73.3218 249.377 76.4468 249.377 80.6288C249.377 84.8337 246.022 87.9816 242.001 87.9816C238.003 87.9816 234.717 84.8337 234.717 80.6288C234.717 76.4468 238.026 73.3218 242.001 73.3218ZM139.337 82.8806L161.326 101.217V139.337H146.667V124.654C146.437 115.118 132.191 115.118 132.007 124.654V139.337H117.301V101.24L139.337 82.8806ZM359.302 117.324C363.3 117.324 366.678 120.449 366.678 124.654C366.678 128.859 363.186 132.03 359.302 132.03C355.396 132.03 351.995 128.859 351.995 124.654C351.995 120.449 355.327 117.324 359.302 117.324ZM300.663 131.984C304.592 131.984 308.039 135.155 308.039 139.337V249.331C308.039 258.959 322.63 259.326 322.63 249.331V219.989C322.63 215.784 326.145 212.613 330.006 212.613C333.866 212.613 337.29 215.784 337.29 219.989V249.331C337.29 259.097 351.995 259.097 351.995 249.331V227.295C351.995 223.113 355.396 219.989 359.325 219.989C363.3 219.989 366.678 223.113 366.678 227.295V249.331C366.678 259.097 381.338 259.097 381.338 249.331V242.001C381.338 237.796 384.693 234.648 388.668 234.648C392.689 234.648 395.998 237.796 395.998 242.001V299.629L383.084 344.665H290.553L238.44 240.347C235.43 234.327 237.268 227.824 242.277 224.929C247.263 222.011 254.064 223.389 257.327 228.973L279.662 267.621C283.407 274.147 293.333 271.527 293.379 263.991V139.337C293.379 135.155 296.734 131.984 300.663 131.984ZM241.955 161.372C245.976 161.372 249.331 164.451 249.331 168.656C249.331 172.861 245.815 176.032 241.955 176.032C238.141 176.032 234.671 172.861 234.671 168.656C234.671 164.451 238.003 161.372 241.955 161.372ZM29.3425 167.324V249.331C29.5723 258.913 43.8185 258.913 44.0023 249.331V205.329C44.0023 197.08 50.7348 190.669 58.6621 190.669C66.6583 190.669 73.3678 197.08 73.3678 205.329V247.194C73.3678 249.699 74.4937 251.514 74.7924 252.042C78.6527 257.948 86.6259 266.518 90.9457 271.642C96.874 278.582 102.664 287.175 102.664 289.841V315.323C102.435 325.341 117.577 325.341 117.347 315.323V308.039H148.689C147.655 318.425 144.714 327.938 141.635 336.646C138.716 344.803 135.408 352.754 134.144 359.325H36.6724V337.29C36.6724 332.028 34.995 326.168 32.8581 319.459C30.7212 312.681 27.9639 305.098 25.2525 297.423C19.7608 282.051 14.6598 265.714 14.6598 257.879V195.471C14.6598 189.704 16.0844 182.443 19.6 176.653C21.8518 172.907 25.2065 169.529 29.3425 167.324ZM114.015 278.651H241.197L248.527 293.356H117.347V289.427C117.347 285.107 115.003 280.328 114.015 278.651ZM286.003 359.325H388.668C392.643 359.325 395.998 362.45 395.998 366.655V403.374C395.998 407.533 392.597 410.657 388.668 410.657H286.003C281.982 410.657 278.674 407.533 278.674 403.374V366.655C278.674 362.45 281.982 359.325 286.003 359.325ZM36.6724 373.985H139.337C143.358 373.985 146.667 377.133 146.667 381.315V418.033C146.667 422.192 143.266 425.317 139.337 425.317H36.6724C32.5824 425.317 29.3425 422.031 29.3425 418.033V381.315C29.3425 377.133 32.6283 373.985 36.6724 373.985ZM300.663 381.315C296.619 381.315 293.333 384.601 293.333 388.668C293.333 392.712 296.619 395.998 300.663 395.998C304.707 395.998 307.993 392.712 307.993 388.668C307.993 384.601 304.707 381.315 300.663 381.315ZM51.3322 395.998C47.2881 395.998 44.0023 399.284 44.0023 403.328C44.0023 407.372 47.2881 410.657 51.3322 410.657C55.3763 410.657 58.6621 407.372 58.6621 403.328C58.6621 399.284 55.3763 395.998 51.3322 395.998Z" fill="#93F1AD"/>
</g>
</svg>
