<svg width="385" height="441" viewBox="0 0 385 441" fill="none" xmlns="http://www.w3.org/2000/svg">
<mask id="mask0_501_3773" style="mask-type:luminance" maskUnits="userSpaceOnUse" x="0" y="0" width="385" height="441">
<path d="M0.5 0.5H384.402V440.5H0.5V0.5Z" fill="white"/>
</mask>
<g mask="url(#mask0_501_3773)">
<path d="M16.6579 331.333L64.9137 283.609V330.851C64.9137 351.025 79.2081 367.408 96.7903 367.408H288.11C305.692 367.408 319.986 351.025 319.986 330.851V287.009H332.757C336.265 287.009 339.132 290.295 339.132 294.316V382.022C339.132 386.043 336.265 389.329 332.757 389.329H115.936C112.408 389.329 109.541 392.615 109.541 396.636V416.741C109.541 420.372 107.817 423.451 104.87 424.99C101.862 426.599 98.5746 426.047 96.0485 423.566L16.6579 344.982C14.8936 343.213 13.8912 340.8 13.8912 338.158C13.8912 335.538 14.8936 333.103 16.6579 331.333ZM307.236 111.598V330.851C307.236 342.96 298.675 352.794 288.11 352.794H96.7903C86.2249 352.794 77.6644 342.96 77.6644 330.851V111.598C77.6644 99.4883 86.2249 89.6538 96.7903 89.6538H288.11C298.675 89.6538 307.236 99.4883 307.236 111.598ZM52.1631 155.439C48.6347 155.439 45.7878 152.153 45.7878 148.132V60.4262C45.7878 56.4051 48.6347 53.1193 52.1631 53.1193H268.984C272.492 53.1193 275.359 49.8335 275.359 45.8124V25.7069C275.359 22.0764 277.103 18.9974 280.03 17.4579C283.057 15.8954 286.345 16.4009 288.851 18.8825L368.242 97.4663C370.006 99.2355 371.009 101.648 371.009 104.291C371.009 106.91 370.006 109.323 368.242 111.115L319.986 158.84V111.598C319.986 91.4231 305.692 75.04 288.11 75.04H96.7903C79.2081 75.04 64.9137 91.4231 64.9137 111.598V155.439H52.1631ZM87.7285 434.641C91.6379 438.501 96.4495 440.523 101.361 440.523C104.328 440.523 107.336 439.788 110.182 438.272C117.68 434.342 122.312 426.093 122.312 416.741V403.943H332.757C343.302 403.943 351.883 394.131 351.883 382.022V294.316C351.883 282.207 343.302 272.396 332.757 272.396H319.986V178.141L376.582 122.144C381.153 117.641 383.759 111.115 383.759 104.291C383.759 97.4663 381.153 90.9176 376.562 86.368L297.171 7.80726C290.896 1.60327 282.296 0.178662 274.738 4.17678C267.24 8.08299 262.608 16.355 262.608 25.7069V38.5055H52.1631C41.5978 38.5055 33.0172 48.317 33.0172 60.4262V148.132C33.0172 160.241 41.5978 170.053 52.1631 170.053H64.9137V264.307L8.31786 320.304C3.74688 324.808 1.14062 331.333 1.14062 338.158C1.14062 344.982 3.74688 351.531 8.31786 356.057L87.7285 434.641Z" fill="#93F1AD"/>
</g>
<path d="M262.608 206.61H122.311V191.996H262.608V206.61ZM268.983 316.237H115.936V308.93C115.936 304.909 118.783 301.623 122.311 301.623H262.608C266.117 301.623 268.983 304.909 268.983 308.93V316.237ZM141.437 287.009H128.687V221.224H141.437V287.009ZM173.314 287.009H154.188V221.224H173.314V287.009ZM198.835 287.009H186.084V221.224H198.835V287.009ZM230.712 287.009H211.586V221.224H230.712V287.009ZM243.462 287.009V221.224H256.233V287.009H243.462ZM192.46 126.418L271.71 177.359H113.189L192.46 126.418ZM282.235 167.387L198.073 113.275C194.625 111.046 190.294 111.046 186.826 113.275L102.684 167.387C98.033 170.328 95.8277 176.257 97.1709 182.139C98.5141 188.044 102.965 191.996 108.298 191.996H109.541V206.61C109.541 211.964 112.147 216.651 115.936 219.202V288.342C108.538 291.375 103.165 299.417 103.165 308.93V316.237C103.165 324.302 108.899 330.851 115.936 330.851H268.983C276 330.851 281.734 324.302 281.734 316.237V308.93C281.734 299.417 276.381 291.375 268.983 288.342V219.202C272.773 216.651 275.359 211.964 275.359 206.61V191.996H276.602C281.934 191.996 286.385 188.044 287.728 182.139C289.072 176.257 286.866 170.328 282.235 167.387Z" fill="#93F1AD"/>
</svg>
