<svg width="169" height="51" viewBox="0 0 169 51" fill="none" xmlns="http://www.w3.org/2000/svg">
<g clip-path="url(#clip0_513_2988)">
<mask id="mask0_513_2988" style="mask-type:luminance" maskUnits="userSpaceOnUse" x="0" y="0" width="169" height="51">
<path d="M0.144531 50.2123H168.145V0.5H0.144531V50.2123Z" fill="white"/>
</mask>
<g mask="url(#mask0_513_2988)">
<path d="M36.2314 42.6376C32.3767 45.1238 27.8054 46.2593 23.2354 45.8658C18.6654 45.4723 14.3555 43.5721 10.9825 40.4635C7.55531 37.2912 5.31161 33.0456 4.62151 28.4269C3.9314 23.8081 4.83611 19.0921 7.18642 15.0566C9.4829 10.9192 13.2005 7.754 17.6512 6.1468C24.0981 3.77246 30.3009 4.51729 36.2314 8.07591V3.21798C36.1724 3.16635 36.1067 3.12293 36.036 3.08887C33.5227 1.83204 30.8126 1.01499 28.0234 0.67315C25.8945 0.415306 23.7409 0.440351 21.6187 0.747633C16.2405 1.46454 11.2507 3.94082 7.42724 7.79039C4.67213 10.5032 2.60999 13.839 1.41483 17.5162C0.471676 20.3474 0.0472194 23.3256 0.161865 26.3076C0.256442 28.9007 0.759162 31.4626 1.65152 33.8991C3.23691 38.2846 6.03546 42.1296 9.72131 44.9863C12.0944 46.8531 14.7954 48.2604 17.6851 49.1358C19.0465 49.5784 20.445 49.8974 21.8636 50.0891C23.3538 50.2286 24.8525 50.2546 26.3467 50.1669C29.7927 50.0258 33.1663 49.1333 36.2314 47.5518V42.6376Z" fill="white"/>
<path d="M44.2549 25.1721L48.7238 19.163C48.9224 18.8957 49.1178 18.6267 49.3189 18.3619C49.5041 18.0914 49.7731 17.8894 50.0845 17.787C50.3959 17.6845 50.7323 17.6873 51.0419 17.795C51.3452 17.8941 51.6065 18.0918 51.7844 18.3567C51.9623 18.6215 52.0464 18.9383 52.0234 19.2565C52.0273 23.497 52.0273 27.737 52.0234 31.9765C52.0426 32.1746 52.0199 32.3745 51.9568 32.5632C51.8936 32.7519 51.7915 32.9252 51.6569 33.0719C51.5223 33.2185 51.3584 33.3351 51.1758 33.4142C50.9932 33.4933 50.796 33.5331 50.597 33.5309C50.398 33.5288 50.2017 33.4847 50.0208 33.4017C49.84 33.3187 49.6786 33.1985 49.5473 33.0489C49.416 32.8994 49.3176 32.7239 49.2585 32.5339C49.1995 32.3438 49.1811 32.1435 49.2047 31.9459C49.2008 29.4079 49.2008 26.8678 49.2047 24.3255V23.6551C48.7296 24.2344 48.3522 24.6987 47.9798 25.1671C47.1522 26.2099 46.3247 27.2559 45.4971 28.297C44.6124 29.411 43.5762 29.3911 42.742 28.2333C41.6885 26.7718 40.6499 25.3004 39.5078 23.6965C39.4888 24.0135 39.4714 24.1881 39.4714 24.3635C39.4714 26.8684 39.4714 29.3737 39.4714 31.8797C39.5036 32.269 39.3858 32.6559 39.1421 32.9613C38.8984 33.2667 38.5473 33.4674 38.1605 33.5224C37.9438 33.5705 37.7188 33.5662 37.5041 33.5098C37.2894 33.4535 37.0912 33.3468 36.926 33.1986C36.7608 33.0504 36.6333 32.8649 36.5541 32.6575C36.4749 32.4502 36.4462 32.2269 36.4706 32.0063C36.4631 29.9042 36.4706 27.8013 36.4706 25.6984C36.4706 23.579 36.4813 21.4587 36.4656 19.3392C36.4332 19.0149 36.5043 18.6887 36.6685 18.4071C36.8328 18.1256 37.0818 17.9032 37.3801 17.7718C37.673 17.636 38.0054 17.6123 38.3146 17.7052C38.6237 17.7981 38.8881 18.0011 39.0576 18.2758C40.1335 19.6272 41.1572 21.03 42.2024 22.4137C42.872 23.3084 43.5357 24.2079 44.2549 25.1721Z" fill="white"/>
<path d="M153.681 25.7315C153.681 23.6294 153.681 21.5273 153.681 19.4252C153.67 19.2193 153.701 19.0132 153.775 18.8203C153.848 18.6275 153.96 18.452 154.105 18.3054C154.25 18.1588 154.425 18.0442 154.617 17.9691C154.809 17.894 155.015 17.86 155.221 17.8694C157.148 17.8595 159.077 17.8313 161.003 17.8752C162.694 17.9089 164.319 18.5366 165.593 19.6484C166.867 20.7601 167.709 22.2849 167.972 23.9555C168.278 25.2946 168.244 26.6892 167.872 28.0115C167.499 29.3338 166.802 30.5417 165.842 31.5246C165.221 32.1602 164.478 32.6646 163.659 33.0078C162.839 33.351 161.959 33.526 161.07 33.5224C159.127 33.5662 157.18 33.5372 155.235 33.5315C155.025 33.5582 154.812 33.5365 154.612 33.4681C154.411 33.3998 154.229 33.2864 154.079 33.1369C153.929 32.9873 153.815 32.8055 153.746 32.6052C153.677 32.4049 153.655 32.1916 153.681 31.9814C153.681 29.8964 153.681 27.8131 153.681 25.7315ZM156.718 20.5491V30.7392C158.125 30.7392 159.504 30.8021 160.878 30.7226C161.662 30.6829 162.418 30.424 163.062 29.9754C163.706 29.5268 164.211 28.9066 164.519 28.1852C164.951 27.3002 165.149 26.3192 165.095 25.3359C165.003 22.9963 163.655 21.1226 161.557 20.7932C159.95 20.6219 158.334 20.5399 156.718 20.5491Z" fill="#FECA38"/>
<path d="M118.17 27.9592C118.17 29.333 118.17 30.629 118.17 31.925C118.201 32.1482 118.179 32.3754 118.106 32.5886C118.033 32.8017 117.911 32.9948 117.75 33.1527C117.59 33.3105 117.394 33.4286 117.18 33.4977C116.965 33.5667 116.738 33.5848 116.515 33.5504C116.33 33.5503 116.148 33.5121 115.978 33.4382C115.809 33.3643 115.656 33.2563 115.53 33.1208C115.405 32.9854 115.308 32.8255 115.247 32.6511C115.186 32.4766 115.161 32.2915 115.175 32.1071C115.169 30.0737 115.175 28.0412 115.175 26.0078C115.175 23.8009 115.175 21.5923 115.175 19.3821C115.144 19.1761 115.163 18.9659 115.228 18.7682C115.293 18.5704 115.404 18.3907 115.551 18.2433C115.698 18.0959 115.878 17.9849 116.075 17.9191C116.273 17.8533 116.483 17.8346 116.689 17.8643C118.635 17.8643 120.581 17.8643 122.528 17.8643C123.678 17.8095 124.811 18.1649 125.723 18.8672C126.635 19.5694 127.268 20.5728 127.51 21.6985C127.821 22.8061 127.728 23.988 127.249 25.0338C126.77 26.0795 125.935 26.9212 124.893 27.4089C124.848 27.4321 124.81 27.4652 124.727 27.5214C125.61 28.5973 126.488 29.6632 127.357 30.735C127.554 30.9578 127.724 31.2028 127.864 31.4649C128.004 31.7412 128.05 32.0556 127.996 32.3606C127.942 32.6656 127.79 32.9447 127.563 33.1556C127.336 33.3787 127.043 33.5231 126.728 33.5678C126.413 33.6125 126.092 33.555 125.812 33.4039C125.487 33.202 125.205 32.9376 124.984 32.626C123.972 31.2191 122.978 29.7979 122.005 28.3623C121.923 28.2214 121.803 28.1072 121.658 28.0337C121.513 27.9602 121.349 27.9306 121.188 27.9485C120.21 27.975 119.231 27.9576 118.18 27.9576M118.198 25.3333C119.724 25.3333 121.208 25.3639 122.692 25.3234C123.268 25.293 123.81 25.0392 124.203 24.6159C124.595 24.1926 124.807 23.633 124.794 23.0558C124.833 22.7757 124.816 22.4906 124.743 22.2174C124.671 21.9441 124.544 21.6881 124.371 21.4645C124.198 21.2409 123.982 21.0542 123.735 20.9153C123.489 20.7764 123.217 20.6882 122.936 20.6558C121.372 20.5523 119.792 20.631 118.198 20.631V25.3333Z" fill="white"/>
<path d="M104.315 27.1349V30.571H104.912C106.997 30.571 109.084 30.576 111.17 30.571C111.407 30.553 111.644 30.5905 111.864 30.6806C112.084 30.7707 112.279 30.9108 112.435 31.0899C112.629 31.308 112.754 31.5788 112.794 31.868C112.835 32.1572 112.788 32.4518 112.66 32.7145C112.554 32.9684 112.372 33.1833 112.139 33.3296C111.905 33.4758 111.633 33.5463 111.358 33.5313C108.429 33.5412 105.501 33.5412 102.575 33.5313C102.402 33.531 102.232 33.4963 102.074 33.4292C101.915 33.3621 101.772 33.2639 101.652 33.1405C101.532 33.0171 101.438 32.871 101.375 32.7107C101.313 32.5504 101.283 32.3792 101.288 32.2071C101.28 27.8783 101.28 23.5495 101.288 19.2207C101.279 19.0398 101.309 18.8592 101.374 18.6904C101.44 18.5217 101.54 18.3685 101.669 18.2409C101.797 18.1133 101.951 18.0139 102.12 17.9494C102.289 17.8848 102.47 17.8563 102.651 17.8659C105.385 17.8582 108.12 17.8582 110.855 17.8659C111.053 17.8517 111.252 17.88 111.438 17.9489C111.624 18.0177 111.793 18.1255 111.934 18.2651C112.075 18.4046 112.185 18.5727 112.256 18.7581C112.327 18.9434 112.357 19.1418 112.345 19.3398C112.352 19.5377 112.317 19.7348 112.243 19.9185C112.17 20.1022 112.058 20.2684 111.916 20.4064C111.774 20.5445 111.605 20.6513 111.419 20.72C111.234 20.7887 111.036 20.8178 110.838 20.8055C108.857 20.8105 106.876 20.8105 104.895 20.8105H104.307V24.1762H104.886C106.569 24.1762 108.252 24.1762 109.934 24.1762C110.136 24.1543 110.34 24.176 110.533 24.2399C110.726 24.3037 110.903 24.4082 111.052 24.5464C111.2 24.6845 111.318 24.8529 111.396 25.0404C111.474 25.2278 111.511 25.4298 111.504 25.6328C111.52 25.8401 111.489 26.0483 111.414 26.2423C111.34 26.4363 111.223 26.6114 111.073 26.755C110.922 26.8985 110.742 27.007 110.545 27.0725C110.347 27.1381 110.138 27.1591 109.932 27.134C108.266 27.134 106.601 27.134 104.935 27.134L104.315 27.1349Z" fill="white"/>
<path d="M145.437 32.0673C145.412 32.4171 145.276 32.7499 145.05 33.0176C144.823 33.2853 144.517 33.4742 144.177 33.5569C143.864 33.6601 143.523 33.6421 143.223 33.5065C142.923 33.3709 142.685 33.1275 142.555 32.8245C142.262 32.2684 141.973 31.7089 141.715 31.1296C141.676 31.0172 141.598 30.922 141.496 30.8605C141.394 30.799 141.274 30.7751 141.156 30.7928C138.649 30.8033 136.143 30.8033 133.636 30.7928C133.508 30.7754 133.379 30.8031 133.271 30.8712C133.162 30.9392 133.08 31.0433 133.041 31.1652C132.819 31.6783 132.556 32.174 132.311 32.6772C132.123 33.0655 131.795 33.3683 131.393 33.5251C130.991 33.6819 130.545 33.6812 130.143 33.523C129.956 33.4248 129.79 33.29 129.656 33.1265C129.521 32.963 129.421 32.7741 129.361 32.5712C129.301 32.3682 129.283 32.1553 129.307 31.945C129.331 31.7348 129.397 31.5315 129.501 31.3473C130.528 29.299 131.581 27.2631 132.626 25.2231C133.71 23.1053 134.804 20.9925 135.878 18.8698C135.997 18.5474 136.211 18.2687 136.492 18.0709C136.773 17.8731 137.107 17.7655 137.451 17.7625C137.777 17.777 138.09 17.8895 138.351 18.0853C138.612 18.2811 138.807 18.551 138.912 18.8598C140.97 22.974 143.033 27.0866 145.101 31.1975C145.226 31.4815 145.337 31.7718 145.432 32.0673M139.915 27.7688C139.068 25.9158 138.255 24.1373 137.395 22.2571L134.658 27.7688H139.915Z" fill="#FECA38"/>
<path d="M58.0887 29.011C58.0887 30.0868 58.1077 31.099 58.0829 32.1111C58.0986 32.4577 57.9816 32.7973 57.7557 33.0607C57.5299 33.324 57.2121 33.4914 56.8672 33.5288C56.4912 33.5884 56.1064 33.5068 55.787 33.2995C55.4676 33.0923 55.2363 32.7742 55.1375 32.4066C55.1015 32.2355 55.0868 32.0607 55.0937 31.886C55.0909 27.699 55.0909 23.5119 55.0937 19.3249C55.0716 19.1013 55.0991 18.8757 55.1743 18.6639C55.2494 18.4522 55.3703 18.2597 55.5284 18.1001C55.6864 17.9404 55.8778 17.8176 56.0887 17.7404C56.2997 17.6631 56.525 17.6334 56.7488 17.6532C58.5182 17.6532 60.2892 17.6474 62.0586 17.6532C62.7753 17.6414 63.487 17.7733 64.1519 18.0411C64.8167 18.3089 65.4212 18.7071 65.9297 19.2122C66.4382 19.7174 66.8403 20.3193 67.1125 20.9824C67.3846 21.6454 67.5211 22.3563 67.5141 23.073C67.598 23.9931 67.4485 24.9194 67.0795 25.7664C66.7105 26.6133 66.1338 27.3536 65.4029 27.9186C64.456 28.63 63.3025 29.0124 62.1182 29.0077C60.8065 29.0209 59.4939 29.0077 58.0879 29.0077M58.135 20.5431V26.1608C59.4732 26.1608 60.7684 26.2096 62.0603 26.1475C62.7401 26.0957 63.3775 25.7965 63.8516 25.3065C64.3257 24.8165 64.6038 24.1697 64.6332 23.4885C64.677 22.7984 64.4618 22.1169 64.0298 21.5771C63.5977 21.0373 62.9798 20.678 62.297 20.5696C60.9298 20.4496 59.5428 20.5431 58.135 20.5431Z" fill="white"/>
<path d="M83.4129 23.7485V27.4818C83.4902 28.9256 83.0414 30.3485 82.1497 31.4867C81.2579 32.6248 79.9837 33.401 78.5632 33.6713C77.4113 34.0017 76.1961 34.0451 75.0235 33.7977C73.851 33.5503 72.7568 33.0196 71.8366 32.252C71.1992 31.7364 70.6865 31.0835 70.3365 30.3421C69.9866 29.6007 69.8086 28.7899 69.8156 27.9701C69.7768 25.0959 69.8008 22.2208 69.8082 19.3458C69.7918 19.1435 69.819 18.94 69.8878 18.749C69.9566 18.5581 70.0655 18.3841 70.2072 18.2387C70.3488 18.0934 70.52 17.98 70.7091 17.9063C70.8983 17.8326 71.101 17.8003 71.3036 17.8114C71.5064 17.8022 71.7087 17.8368 71.8968 17.9131C72.0849 17.9894 72.2542 18.1054 72.3932 18.2533C72.5322 18.4012 72.6376 18.5774 72.7021 18.7698C72.7665 18.9623 72.7886 19.1664 72.7668 19.3681C72.7718 21.9974 72.7668 24.6258 72.7668 27.2559C72.7072 27.9971 72.8967 28.7371 73.3054 29.3583C73.7141 29.9796 74.3185 30.4466 75.0228 30.6854C75.7886 30.9998 76.629 31.0859 77.4426 30.9335C78.2562 30.7811 79.0084 30.3966 79.6085 29.8263C80.1919 29.1586 80.4933 28.2904 80.4493 27.4048C80.4493 24.7226 80.4443 22.0412 80.4493 19.359C80.4357 19.1167 80.4814 18.8747 80.5823 18.6539C80.6831 18.4331 80.8363 18.2402 81.0284 18.0919C81.2205 17.9435 81.4458 17.8442 81.6849 17.8024C81.924 17.7606 82.1697 17.7776 82.4008 17.852C82.7086 17.9354 82.9777 18.1235 83.1618 18.3839C83.346 18.6443 83.4336 18.9607 83.4096 19.2788C83.4187 20.7684 83.4096 22.2581 83.4096 23.7477" fill="white"/>
<path d="M93.9175 20.7021C93.9175 24.5536 93.9175 28.3159 93.9175 32.0872C93.9303 32.3381 93.8793 32.5882 93.7695 32.8142C93.6596 33.0401 93.4944 33.2346 93.2891 33.3796C93.0839 33.5245 92.8453 33.6152 92.5956 33.6432C92.3459 33.6712 92.0932 33.6355 91.861 33.5396C91.5579 33.4395 91.2988 33.2378 91.1275 32.9686C90.9562 32.6994 90.8832 32.3792 90.9208 32.0623C90.915 30.1523 90.9208 28.243 90.9208 26.3321C90.9208 24.667 90.9208 23.0025 90.9208 21.3385V20.7021H88.2121C87.7387 20.7021 87.2645 20.7194 86.7928 20.6971C86.4367 20.688 86.0987 20.5381 85.8528 20.2803C85.607 20.0225 85.4733 19.6778 85.4811 19.3216C85.4627 19.1422 85.48 18.9609 85.532 18.7882C85.584 18.6154 85.6697 18.4547 85.784 18.3152C85.8984 18.1758 86.0393 18.0603 86.1985 17.9755C86.3577 17.8907 86.5321 17.8383 86.7117 17.8212C86.7812 17.8133 86.8511 17.8097 86.9211 17.8105C90.5318 17.8105 94.1434 17.7981 97.7542 17.8179C98.0148 17.813 98.2718 17.8794 98.4974 18.0098C98.7231 18.1402 98.9088 18.3298 99.0347 18.558C99.1606 18.7862 99.2217 19.0445 99.2116 19.3049C99.2015 19.5653 99.1205 19.8181 98.9774 20.0359C98.8464 20.2554 98.6569 20.4341 98.43 20.552C98.2031 20.6698 97.9479 20.7221 97.693 20.7029C96.4516 20.7029 95.2102 20.7029 93.9167 20.7029" fill="white"/>
<path d="M150.42 25.7042C150.42 27.8073 150.42 29.9105 150.42 32.0137C150.445 32.2196 150.424 32.4285 150.359 32.6254C150.293 32.8223 150.185 33.0023 150.042 33.1526C149.899 33.3028 149.725 33.4196 149.531 33.4946C149.338 33.5695 149.13 33.6008 148.924 33.5861C148.717 33.6044 148.508 33.5762 148.314 33.5035C148.12 33.4307 147.944 33.3153 147.8 33.1658C147.656 33.0162 147.547 32.8363 147.482 32.6392C147.416 32.4421 147.396 32.2329 147.422 32.0269C147.42 27.8029 147.42 23.5789 147.422 19.3549C147.407 19.0993 147.458 18.8441 147.57 18.6137C147.682 18.3834 147.851 18.1857 148.061 18.0396C148.272 17.8935 148.516 17.804 148.771 17.7795C149.026 17.7551 149.283 17.7966 149.517 17.9C149.794 17.9919 150.033 18.1731 150.196 18.4153C150.359 18.6574 150.437 18.9469 150.418 19.2382C150.422 21.3938 150.423 23.5491 150.42 25.7042Z" fill="#FECA38"/>
<path d="M32.1762 25.133C32.076 27.325 31.2049 29.4113 29.7166 31.0237C28.9227 31.9102 27.9511 32.6197 26.8651 33.1061C25.7791 33.5926 24.6029 33.8452 23.4129 33.8475H23.4071C21.106 33.8349 18.9009 32.923 17.2631 31.3066C15.6252 29.6903 14.6843 27.4975 14.6413 25.1967C14.6413 25.1611 14.6413 25.1255 14.6413 25.0891C14.6253 22.8001 15.4776 20.5901 17.0264 18.9046C17.18 18.7321 17.3661 18.5916 17.5741 18.4911C17.7821 18.3906 18.0078 18.3322 18.2384 18.319C18.469 18.3059 18.7 18.3383 18.918 18.4145C19.1361 18.4907 19.3369 18.6091 19.5092 18.7631C19.8552 19.073 20.0642 19.5076 20.0904 19.9714C20.1166 20.4352 19.9579 20.8905 19.649 21.2375C18.6824 22.2728 18.146 23.6371 18.1486 25.0535V25.0626C18.1557 25.329 18.1856 25.5942 18.238 25.8555C18.2585 25.9557 18.2696 26.0577 18.2711 26.16C18.5234 27.3378 19.1702 28.3941 20.1044 29.1543C21.0386 29.9146 22.2043 30.3332 23.4088 30.341C24.796 30.2854 26.1104 29.7055 27.0868 28.7185C28.0631 27.7314 28.6285 26.4107 28.6689 25.0229C28.6596 23.6164 28.121 22.2649 27.1602 21.2375C26.8515 20.8902 26.6932 20.4346 26.7201 19.9707C26.7469 19.5068 26.9567 19.0725 27.3034 18.7631C27.6506 18.4534 28.1067 18.2943 28.5712 18.3209C29.0357 18.3474 29.4706 18.5574 29.7803 18.9046C31.3416 20.601 32.1996 22.8275 32.1803 25.133" fill="#FECA38"/>
<path d="M23.4081 25.0138C22.9581 25.0138 22.5266 24.8351 22.2084 24.5169C21.8903 24.1988 21.7115 23.7672 21.7115 23.3173V16.205C21.7117 15.7552 21.8906 15.3239 22.2087 15.0059C22.5269 14.6879 22.9583 14.5093 23.4081 14.5093C23.8579 14.5093 24.2893 14.6879 24.6074 15.0059C24.9256 15.3239 25.1044 15.7552 25.1046 16.205V23.3173C25.1046 23.7672 24.9259 24.1988 24.6077 24.5169C24.2895 24.8351 23.858 25.0138 23.4081 25.0138Z" fill="#FECA38"/>
</g>
</g>
<defs>
<clipPath id="clip0_513_2988">
<rect width="168" height="50" fill="white" transform="translate(0.144531 0.5)"/>
</clipPath>
</defs>
</svg>
