<svg width="447" height="441" viewBox="0 0 447 441" fill="none" xmlns="http://www.w3.org/2000/svg">
<path d="M198.031 122.488C198.055 133.587 207.131 142.548 218.371 142.571C229.588 142.548 238.665 133.587 238.688 122.488C238.665 111.413 229.588 102.429 218.371 102.406C207.131 102.429 198.055 111.413 198.031 122.488ZM185.069 122.488C185.069 104.336 199.963 89.6074 218.371 89.6074C236.756 89.6074 251.65 104.336 251.674 122.488C251.674 140.664 236.756 155.37 218.371 155.393C199.963 155.37 185.069 140.664 185.069 122.488Z" fill="#93F1AD"/>
<path d="M258.073 210.585C258.073 200.153 253.791 190.755 246.879 183.908C239.944 177.061 230.426 172.856 219.86 172.856C209.271 172.856 199.753 177.061 192.818 183.908C185.906 190.755 181.647 200.153 181.624 210.585H168.662C168.662 182.667 191.585 160.057 219.86 160.057C248.136 160.057 271.036 182.667 271.036 210.585H258.073Z" fill="#93F1AD"/>
<path d="M192.515 213.526V191.467H205.478V213.526H192.515Z" fill="#93F1AD"/>
<path d="M234.241 213.526V191.467H247.204V213.526H234.241Z" fill="#93F1AD"/>
<path d="M127.143 255.92C127.166 267.018 136.242 275.979 147.483 276.002C158.7 275.979 167.799 267.018 167.823 255.92C167.799 244.845 158.7 235.86 147.483 235.86C136.242 235.86 127.166 244.845 127.143 255.92ZM114.157 255.92C114.18 237.768 129.075 223.039 147.483 223.039C165.891 223.039 180.785 237.768 180.785 255.92C180.785 274.095 165.891 288.824 147.483 288.824C129.075 288.824 114.18 274.095 114.157 255.92Z" fill="#93F1AD"/>
<path d="M187.186 341.742C187.186 331.31 182.927 321.912 175.992 315.065C169.057 308.217 159.539 304.012 148.973 304.012C138.384 304.012 128.889 308.217 121.954 315.065C115.019 321.912 110.76 331.31 110.76 341.742H97.7744C97.7744 313.824 120.697 291.214 148.973 291.214C177.249 291.214 200.148 313.824 200.172 341.742H187.186Z" fill="#93F1AD"/>
<path d="M121.627 344.683V322.625H134.59V344.683H121.627Z" fill="#93F1AD"/>
<path d="M163.332 344.683V322.625H176.317V344.683H163.332Z" fill="#93F1AD"/>
<path d="M245.879 273.038C245.879 284.114 254.978 293.098 266.219 293.121C277.436 293.098 286.512 284.114 286.535 273.038C286.512 261.963 277.436 252.979 266.219 252.956C254.978 252.979 245.879 261.963 245.879 273.038ZM232.893 273.038C232.893 254.863 247.811 240.157 266.219 240.134C284.604 240.157 299.498 254.863 299.521 273.038C299.498 291.191 284.604 305.92 266.219 305.92C247.811 305.92 232.893 291.191 232.893 273.038Z" fill="#93F1AD"/>
<path d="M305.919 358.86C305.919 348.405 301.637 339.008 294.725 332.16C287.79 325.336 278.272 321.108 267.683 321.108C257.117 321.108 247.599 325.336 240.664 332.16C233.729 339.031 229.47 348.405 229.47 358.86H216.507C216.507 330.942 239.407 308.309 267.683 308.309C295.958 308.309 318.881 330.942 318.881 358.86H305.919Z" fill="#93F1AD"/>
<path d="M240.339 361.802V339.72H253.325V361.802H240.339Z" fill="#93F1AD"/>
<path d="M282.065 361.802V339.72H295.051V361.802H282.065Z" fill="#93F1AD"/>
<path d="M25.584 253.53L38.4069 251.485C51.4626 330.782 116.206 393.051 197.379 403.391L195.703 416.098C108.805 404.977 39.5938 338.456 25.584 253.53Z" fill="#93F1AD"/>
<path d="M245.831 403.322C326.748 392.798 391.258 330.621 404.267 251.485L417.067 253.53C403.127 338.272 334.172 404.724 247.529 416.006L245.831 403.322Z" fill="#93F1AD"/>
<path d="M245.831 40.458L247.529 27.7744C335.754 39.2862 405.64 107.967 417.788 194.914L404.942 196.661C393.609 115.457 328.237 51.1886 245.831 40.458Z" fill="#93F1AD"/>
<path d="M24.8857 194.914C37.0571 107.783 107.223 38.9875 195.703 27.7054L197.379 40.3891C114.716 50.9359 49.0887 115.296 37.732 196.661L24.8857 194.914Z" fill="#93F1AD"/>
<mask id="mask0_501_3820" style="mask-type:luminance" maskUnits="userSpaceOnUse" x="387" y="215" width="60" height="15">
<path d="M387.907 215.456H446.18V229.174H387.907V215.456Z" fill="white"/>
</mask>
<g mask="url(#mask0_501_3820)">
<path d="M387.953 228.301V215.479H447.18V228.301H387.953Z" fill="#93F1AD"/>
</g>
<mask id="mask1_501_3820" style="mask-type:luminance" maskUnits="userSpaceOnUse" x="0" y="211" width="67" height="19">
<path d="M0.543945 211.665H66.4041V229.312H0.543945V211.665Z" fill="white"/>
</mask>
<g mask="url(#mask1_501_3820)">
<path d="M0.637695 228.301V215.479H62.0761V228.301H0.637695Z" fill="#93F1AD"/>
</g>
<mask id="mask2_501_3820" style="mask-type:luminance" maskUnits="userSpaceOnUse" x="215" y="376" width="19" height="65">
<path d="M215.345 376.369H233.218V440.5H215.345V376.369Z" fill="white"/>
</mask>
<g mask="url(#mask2_501_3820)">
<path d="M215.415 440.5V378.897H228.4V440.5H215.415Z" fill="#93F1AD"/>
</g>
<mask id="mask3_501_3820" style="mask-type:luminance" maskUnits="userSpaceOnUse" x="215" y="0" width="19" height="65">
<path d="M215.345 0.5H233.218V64.6078H215.345V0.5Z" fill="white"/>
</mask>
<g mask="url(#mask3_501_3820)">
<path d="M215.415 62.9994V0.5H228.4V62.9994H215.415Z" fill="#93F1AD"/>
</g>
<path d="M126.561 208.517L115.158 190.548H87.4639C74.6642 190.548 64.3081 180.323 64.3081 167.685V145.121C64.3081 132.484 74.6642 122.259 87.4639 122.259H138.104V135.057H87.4639C81.832 135.08 77.2707 139.561 77.2707 145.121V167.685C77.2707 173.246 81.832 177.727 87.4639 177.75H122.349L134.706 197.235V178.531L139.989 177.566C144.713 176.693 148.32 172.603 148.297 167.685V145.121C148.297 139.561 143.736 135.08 138.104 135.057V122.259C150.904 122.259 161.26 132.484 161.283 145.121V167.685C161.26 176.945 155.698 184.919 147.669 188.503V202.543C147.715 205.806 146.203 208.907 144.015 210.838C141.828 212.814 139.058 213.825 136.196 213.825C136.126 213.825 136.056 213.825 136.01 213.825C132.519 213.825 128.679 211.941 126.561 208.517Z" fill="#93F1AD"/>
<path d="M306.48 235.838C303.617 235.838 300.871 234.827 298.66 232.85C296.473 230.92 294.96 227.818 295.006 224.555V210.539C286.978 206.932 281.416 198.981 281.416 189.698V167.134C281.416 154.519 291.772 144.271 304.571 144.271V157.07C298.939 157.093 294.378 161.597 294.378 167.134V189.698C294.355 194.616 297.962 198.706 302.686 199.579L307.969 200.567V219.271L320.327 199.763H355.211C360.843 199.763 365.405 195.259 365.405 189.698V167.134C365.405 161.597 360.843 157.093 355.211 157.07H304.571V144.271H355.211C368.011 144.271 378.367 154.519 378.367 167.134V189.698C378.367 202.336 368.011 212.584 355.211 212.584H327.518L316.114 230.553C313.996 233.976 310.133 235.861 306.666 235.838C306.619 235.838 306.549 235.838 306.48 235.838Z" fill="#93F1AD"/>
</svg>
