<svg width="194" height="39" viewBox="0 0 194 39" fill="none" xmlns="http://www.w3.org/2000/svg">
<g clip-path="url(#clip0_513_3005)">
<path fill-rule="evenodd" clip-rule="evenodd" d="M126.706 12.7588V15.1535H149.82L150.445 15.8303V19.5264L149.82 20.2032H126.706V22.5978H149.82L150.445 23.2225V26.9187L149.82 27.5954H122.333L121.709 26.9187V8.43799L122.333 7.76123H149.82L150.445 8.43799V12.1341L149.82 12.7588H126.706Z" fill="#F5F5F5"/>
<path fill-rule="evenodd" clip-rule="evenodd" d="M190.425 27.5954H188.551L187.926 26.9187V8.43799L188.551 7.76123H190.425H192.247L192.924 8.43799V26.9187L192.247 27.5954H190.425Z" fill="#F5F5F5"/>
<path fill-rule="evenodd" clip-rule="evenodd" d="M91.8265 15.1535V13.9562V12.7588H110.516H111.505H113.015H114.889L115.566 12.0821V12.03V11.093V10.9368V10.6244V10.26V9.42709V8.43799L114.889 7.76123H113.015H87.4536L86.7769 8.43799V10.26V12.1341V23.2225V25.0966V26.9187L87.4536 27.5954H108.121H113.015H114.889L115.566 26.9187V25.0966V24.4199V23.3266V22.7019V21.869V20.2032V15.8303L114.889 15.1535H113.848H113.015H111.193H102.655L102.03 15.8303V19.5264L102.655 20.2032H110.516V22.5978H108.121H91.8265V21.4005V20.2032V15.1535Z" fill="#F5F5F5"/>
<path fill-rule="evenodd" clip-rule="evenodd" d="M159.19 12.7588H171.736H177.931V15.1535V18.9017V24.2116V26.9187L178.556 27.5954H179.649H180.43H182.252L182.929 26.9187V25.0966V18.9017V18.3291V17.7044V17.6523V17.0276V15.8303V15.2056V13.3315L182.356 12.7588H181.107H179.805H178.92V8.43799L178.244 7.76123H177.255H171.736H154.818L154.193 8.43799V10.26V12.1341V18.9017V24.2116V26.9187L154.818 27.5954H155.911H156.692H158.514L159.19 26.9187V25.0966V18.9017V12.7588Z" fill="#F5F5F5"/>
<path fill-rule="evenodd" clip-rule="evenodd" d="M57.26 12.7588H69.806H76.001V15.1535V18.9017V24.2116V26.9187L76.6777 27.5954H77.7189H78.4997H80.3738L80.9985 26.9187V25.0966V18.9017V18.3291V17.7044V17.6523V17.0276V15.8303V15.2056V13.3315L80.4259 12.7588H79.1765H77.875H76.9901V8.43799L76.3133 7.76123H75.3242H69.806H52.8871L52.2624 8.43799V10.26V12.1341V18.9017V24.2116V26.9187L52.8871 27.5954H53.9803H54.7612H56.5832L57.26 26.9187V25.0966V18.9017V12.7588Z" fill="#F5F5F5"/>
<path d="M192.768 35.6645C192.768 35.4563 192.716 35.3001 192.611 35.0919C192.507 34.8316 192.351 34.6233 192.195 34.4151C191.987 34.2069 191.779 34.1028 191.57 33.9986C191.31 33.8945 191.05 33.8425 190.789 33.8425H182.356C182.2 33.8425 182.044 33.7904 181.94 33.6863C181.835 33.5822 181.783 33.426 181.783 33.2698C181.783 33.1137 181.835 32.9575 181.94 32.8534C182.044 32.7492 182.2 32.6972 182.356 32.6972H192.82V31.8643C192.82 31.4999 192.507 31.1875 192.143 31.1875H182.356C182.096 31.1875 181.783 31.2396 181.575 31.3437C181.315 31.4478 181.107 31.604 180.95 31.7601C180.742 31.9684 180.638 32.1766 180.534 32.3848C180.43 32.5931 180.378 32.8013 180.378 33.0095V33.3739C180.378 33.5822 180.43 33.7904 180.534 33.9986C180.638 34.2589 180.794 34.4672 180.95 34.6233C181.159 34.8316 181.367 34.9357 181.575 35.0398C181.835 35.1439 182.096 35.196 182.356 35.196H190.841C190.998 35.196 191.102 35.248 191.258 35.3522C191.362 35.4563 191.414 35.6125 191.414 35.7686C191.414 35.9248 191.362 36.0289 191.258 36.133C191.154 36.2372 190.998 36.2892 190.841 36.2892H181.002C180.638 36.2892 180.326 36.6016 180.326 36.966V37.7989H190.789C191.05 37.7989 191.362 37.7468 191.57 37.6427C191.831 37.5386 192.039 37.3824 192.195 37.2263C192.403 37.018 192.507 36.8098 192.611 36.6016C192.664 36.4454 192.716 36.2371 192.768 36.081V35.6645Z" fill="#3EBEB8"/>
<path d="M145.759 37.1221C145.759 36.7577 145.447 36.4454 145.082 36.4454H135.295V31.8643C135.295 31.4999 134.983 31.1875 134.619 31.1875H133.838V37.2783C133.838 37.6427 134.15 37.9551 134.515 37.9551H135.295H145.811V37.1221H145.759Z" fill="#3EBEB8"/>
<path d="M176.213 34.5713C176.369 34.4151 176.473 34.2069 176.577 33.9986C176.682 33.7904 176.682 33.5301 176.682 33.2698C176.682 32.9575 176.629 32.6972 176.525 32.4369C176.421 32.1766 176.265 31.9684 176.057 31.7601C175.849 31.5519 175.64 31.4478 175.38 31.3437C175.12 31.2396 174.859 31.1875 174.599 31.1875H167.103H165.333C165.02 31.1875 164.76 31.2396 164.604 31.3437C164.448 31.4478 164.344 31.604 164.344 31.9163V35.9248C164.344 36.2371 164.396 36.4974 164.5 36.7577C164.604 37.018 164.76 37.2263 164.916 37.3824C165.073 37.5386 165.281 37.6948 165.489 37.7989C165.697 37.903 165.958 37.9551 166.166 37.9551H167.051H173.87H174.547C174.807 37.9551 175.12 37.903 175.328 37.7989C175.588 37.6948 175.797 37.5386 176.005 37.3824C176.213 37.1742 176.317 36.966 176.473 36.7577C176.577 36.4974 176.629 36.2371 176.629 35.9769C176.629 35.7166 176.577 35.5083 176.525 35.248C176.421 34.9878 176.317 34.7795 176.213 34.5713ZM174.651 35.3001C174.807 35.3001 174.964 35.3522 175.068 35.4563C175.172 35.5604 175.224 35.7166 175.224 35.8727C175.224 36.0289 175.172 36.1851 175.068 36.2892C174.964 36.3933 174.807 36.4454 174.651 36.4454H173.922H167.103H166.27C166.114 36.4454 166.01 36.3933 165.905 36.3413C165.801 36.2892 165.801 36.1851 165.801 36.081V32.6972H173.922H174.651C174.807 32.6972 174.964 32.7492 175.068 32.8534C175.172 32.9575 175.224 33.1137 175.224 33.2698C175.224 33.4781 175.172 33.5822 175.016 33.6863C174.912 33.7904 174.755 33.7904 174.651 33.7904H167.78C167.415 33.7904 167.103 34.1028 167.103 34.4672V35.3001H174.651Z" fill="#3EBEB8"/>
<path d="M160.648 37.0698C160.596 36.9657 160.544 36.9137 160.492 36.8095L156.796 31.7599C156.64 31.4996 156.379 31.3434 156.119 31.1872C155.859 31.0311 155.546 30.979 155.234 30.979C154.922 30.979 154.609 31.0311 154.297 31.1872C154.037 31.3434 153.776 31.5516 153.62 31.7599L149.508 37.3822C149.299 37.6425 149.508 38.0069 149.82 38.0069H150.861L154.661 32.9052C154.713 32.801 154.817 32.749 154.922 32.6449C155.026 32.5408 155.13 32.4887 155.234 32.4887C155.338 32.4887 155.442 32.5408 155.546 32.6449C155.65 32.749 155.755 32.8531 155.807 32.9052L158.41 36.4451H154.765C154.765 36.4451 154.765 36.4451 154.713 36.4451H154.037C153.672 36.4451 153.36 36.7575 153.36 37.1739V38.0069H154.765H158.566H159.919H159.971C160.127 38.0069 160.284 37.9548 160.44 37.8507C160.596 37.6945 160.7 37.4863 160.7 37.2781C160.7 37.2781 160.7 37.1739 160.648 37.0698Z" fill="#3EBEB8"/>
<path fill-rule="evenodd" clip-rule="evenodd" d="M13.3744 29.313C13.1662 29.4171 13.01 29.5212 12.8018 29.5733L5.25339 32.7488L13.3744 29.313Z" fill="#258A7D"/>
<path fill-rule="evenodd" clip-rule="evenodd" d="M9.67858 11.6132L12.0732 1.30566L2.59865 5.83474C2.59865 5.83474 2.59865 5.83474 2.5466 5.83474C2.39042 5.93886 1.66161 6.35532 1.14102 7.34443C0.880733 7.81295 0.724558 8.38559 0.6725 9.06235C0.620442 9.47882 0.620442 9.94734 0.724558 10.4679L1.24514 30.4583C1.2972 32.6447 3.11924 33.738 5.30568 32.8009L13.3747 29.313L19.9861 26.5019L25.5563 24.1072L9.67858 11.6132Z" fill="#3EBEB8"/>
<path fill-rule="evenodd" clip-rule="evenodd" d="M42.111 24.7317L41.5904 4.6893C41.5384 2.50285 39.7163 1.40963 37.5299 2.34668L36.9573 2.60697L29.9814 5.52223C29.565 5.73047 29.0965 5.9387 28.7321 6.25105L23.1098 8.74984L16.6025 11.7172L36.4367 26.762L36.5408 22.4412L39.7163 25.6688L36.6449 26.9182C36.6449 26.9182 37.9464 30.302 40.2369 29.1567C40.9657 28.7923 41.3822 28.2196 41.6946 27.647C42.0069 26.9182 42.111 26.1894 42.1631 25.6167L42.111 24.7317Z" fill="#3EBEB8"/>
<path fill-rule="evenodd" clip-rule="evenodd" d="M42.111 25.6169V24.7319C42.111 24.7319 42.1631 25.0963 42.111 25.6169Z" fill="#258A7D"/>
<path fill-rule="evenodd" clip-rule="evenodd" d="M41.6424 27.6473C41.3821 28.272 40.9136 28.8447 40.1848 29.157L30.4499 34.0505C28.5237 34.7793 26.7537 33.3737 26.7537 33.3737L19.9341 26.45L16.6024 23.0141L8.84574 15.1533L7.07575 13.3313L1.14111 7.29253C1.66169 6.30343 2.39051 5.88696 2.54669 5.78285H2.59874L12.0733 1.25378C13.583 0.681139 14.9886 1.20172 16.0297 1.82642C17.0189 2.39906 17.6436 3.12787 17.6436 3.12787L23.1617 8.75017L26.2332 11.8737L36.5928 22.4415L39.7683 25.6691L41.6424 27.6473Z" fill="#54FCEF"/>
</g>
<defs>
<clipPath id="clip0_513_3005">
<rect width="193" height="38" fill="white" transform="translate(0.144531 0.5)"/>
</clipPath>
</defs>
</svg>
