<svg width="480" height="518" viewBox="0 0 480 518" fill="none" xmlns="http://www.w3.org/2000/svg">
<path d="M314.88 111.964C338.604 121.167 360.06 134.904 378.223 152.123C377.522 162.298 372.367 171.906 363.703 180.462C351.018 153.392 333.907 130.91 313.855 115.121L310.859 124.163C329.319 139.411 345.054 160.841 356.686 186.561C339.224 200.083 312.424 210.231 280.982 214.603L277.824 224.13C311.776 220.082 340.736 209.61 360.357 195.117C367.671 213.253 373.015 233.252 375.956 254.493L376.28 254.385V254.412L384.674 251.794C381.435 229.366 375.552 208.287 367.563 189.206C377.144 180.516 383.54 170.638 386.077 160.004C396.873 171.474 406.265 184.24 414.038 198.032C416.656 196.574 419.436 195.36 422.324 194.388C399.329 153.068 362.3 120.573 317.714 103.408L314.88 111.964Z" fill="#93F1AD"/>
<path d="M240.553 486.113C211.729 484.71 185.172 470 163.743 446.061C186.009 452.808 211.594 456.938 240.553 457.397V486.113ZM303.951 477.099C308.836 473.941 313.559 470.432 318.147 466.519C316.824 463.631 315.772 460.608 315.043 457.451C295.881 474.643 273.507 484.952 249.568 486.113V457.397C272.724 457.154 294.127 454.482 313.883 449.381C313.802 448.382 313.721 447.384 313.721 446.385C313.721 444.28 313.91 442.202 314.152 440.178C295.503 445.171 274.128 448.166 249.568 448.436V347.362C248.029 347.497 246.491 347.578 244.926 347.578C243.441 347.578 241.984 347.497 240.553 347.362V448.382C206.628 447.815 177.588 442.094 153.271 432.999C146.578 423.795 140.532 413.62 135.269 402.582L128.387 408.762C131.491 415.024 134.81 421.042 138.373 426.764C131.707 423.633 125.445 420.26 119.588 416.67L112.625 422.905C123.097 429.544 134.81 435.508 147.819 440.555C159.046 455.507 172.001 467.895 186.197 477.099C155.808 467.383 128.684 450.352 106.85 428.087L100.129 434.105C136.969 471.836 188.303 495.289 245.061 495.289C273.777 495.289 301.09 489.244 325.866 478.448C323.842 476.127 322.06 473.644 320.468 470.999C315.097 473.293 309.564 475.317 303.951 477.099Z" fill="#93F1AD"/>
<path d="M438.679 289.066C438.679 290.254 438.76 291.414 438.76 292.575C438.76 313.086 435.548 332.815 429.611 351.384C419.274 368.144 405.536 387.063 385.646 403.742C388.263 405.173 390.719 406.846 393.014 408.708C400.004 402.744 406.616 396.186 412.904 389.114C408.181 397.265 402.892 405.065 397.062 412.433C399.221 414.619 401.164 417.021 402.865 419.612C430.933 384.823 447.774 340.642 447.774 292.575C447.774 291.09 447.693 289.579 447.666 288.094C444.751 288.688 441.729 289.012 438.679 289.066Z" fill="#93F1AD"/>
<path d="M107.982 408.897C84.8527 392.002 69.253 371.652 60.6705 351.842C54.652 333.166 51.3593 313.248 51.3593 292.574C51.3593 283.749 52.007 275.059 53.1676 266.557C61.0754 284.694 78.8072 300.995 103.367 313.977C105.553 343.638 112.274 371.409 122.529 395.861L129.574 389.519C121.018 368.144 115.188 344.204 112.813 318.673C133.352 328.146 157.858 335.433 184.901 339.859L193.511 332.113C162.311 327.822 134.378 319.698 112.085 308.849C111.761 303.505 111.572 298.08 111.572 292.574C111.572 265.1 115.566 238.974 122.718 215.251L115.107 209.583C107.065 234.953 102.558 263.021 102.558 292.574C102.558 296.407 102.665 300.212 102.8 303.991C74.6239 288.121 57.5128 267.529 57.5128 245.047H57.2969C59.483 236.329 62.3169 227.855 65.6635 219.65C62.7757 218.759 59.9958 217.572 57.3779 216.168C47.7158 239.757 42.345 265.558 42.345 292.574C42.345 314.328 45.8536 335.271 52.196 354.919V354.946C52.223 355 52.2499 355.081 52.2769 355.162C60.6165 380.748 73.9221 404.12 91.0332 424.119L97.7265 418.127C93.0844 412.676 88.7121 407.008 84.6638 401.043C89.6837 405.901 95.1895 410.57 101.181 415.024L107.982 408.897Z" fill="#93F1AD"/>
<path d="M240.552 216.924C195.643 215.953 156.454 203.538 134 185.266C157.183 134.932 196.155 101.195 240.552 99.0361V216.924ZM186.169 108.077C163.067 123.056 143.257 146.537 128.737 175.739C128.305 183.809 125.957 191.366 122.07 197.924L127.198 201.756C128.197 199.084 129.222 196.44 130.302 193.822C154.619 212.66 194.428 224.994 240.552 225.939V250.58C241.983 250.445 243.44 250.364 244.924 250.364C246.49 250.364 248.028 250.445 249.567 250.58V225.966C254.155 225.912 258.689 225.723 263.169 225.453L266.219 216.223C260.767 216.654 255.207 216.87 249.567 216.951V99.0631C267.271 99.8998 284.086 105.783 299.415 115.742L304.975 98.9282C286.029 93.0446 265.922 89.8868 245.059 89.8868C195.049 89.8868 149.248 108.131 113.866 138.251C116.025 140.329 117.995 142.623 119.749 145.052C139.02 128.67 161.528 115.958 186.169 108.077Z" fill="#93F1AD"/>
<path d="M271.618 343.692L269.432 340.885C267.246 342.153 264.979 343.26 262.604 344.205C265.626 344.07 268.622 343.881 271.618 343.692Z" fill="#93F1AD"/>
<path d="M211.486 334.164L202.472 342.261C210.541 343.152 218.8 343.826 227.221 344.204C221.31 341.883 215.993 338.456 211.486 334.164Z" fill="#93F1AD"/>
<path d="M362.327 397.778C363.812 397.778 365.269 397.859 366.726 397.994C377.495 372.975 384.539 344.393 386.779 313.815C401.623 305.961 413.93 296.893 423.107 286.907C420.165 285.989 417.358 284.775 414.686 283.344C407.48 290.793 398.25 297.675 387.319 303.829C387.481 300.104 387.562 296.353 387.562 292.574C387.562 283.371 387.076 274.33 386.239 265.45L377.468 268.176C378.143 276.192 378.548 284.316 378.548 292.574C378.548 298.026 378.359 303.397 378.062 308.714C352.152 321.372 318.632 330.359 281.117 333.895L287.649 342.234C321.682 338.375 352.422 330.062 377.306 318.538C374.634 347.578 367.482 374.594 356.929 398.075C358.711 397.886 360.492 397.778 362.327 397.778Z" fill="#93F1AD"/>
<path d="M258.663 299.646C254.966 302.803 250.162 304.746 244.926 304.746C239.663 304.746 234.886 302.803 231.161 299.646C224.819 301.238 219.88 305.151 219.88 314.867C224.117 324.502 233.725 331.223 244.926 331.223C256.099 331.223 265.707 324.502 269.945 314.867C269.945 305.151 265.006 301.238 258.663 299.646Z" fill="#93F1AD"/>
<path d="M244.925 300.887C254.479 300.887 262.225 293.114 262.225 283.56C262.225 274.033 254.479 266.233 244.925 266.233C235.371 266.233 227.598 274.033 227.598 283.56C227.598 293.114 235.371 300.887 244.925 300.887Z" fill="#93F1AD"/>
<path d="M244.925 337.457C223.685 337.457 206.412 320.184 206.412 298.971C206.412 277.731 223.685 260.458 244.925 260.458C266.139 260.458 283.412 277.731 283.412 298.971C283.412 320.184 266.139 337.457 244.925 337.457ZM287.271 298.971C287.271 275.625 268.271 256.625 244.925 256.625C221.58 256.625 202.58 275.625 202.58 298.971C202.58 322.316 221.58 341.317 244.925 341.317C268.271 341.317 287.271 322.316 287.271 298.971Z" fill="#93F1AD"/>
<path d="M376.092 447.06C372.394 450.217 367.59 452.16 362.327 452.16C357.092 452.16 352.288 450.217 348.59 447.06C342.248 448.652 337.309 452.565 337.309 462.308C341.546 471.889 351.154 478.637 362.327 478.637C373.528 478.637 383.109 471.889 387.373 462.308C387.373 452.565 382.434 448.652 376.092 447.06Z" fill="#93F1AD"/>
<path d="M362.327 448.301C371.882 448.301 379.654 440.528 379.654 430.974C379.654 421.42 371.882 413.647 362.327 413.647C352.773 413.647 345 421.42 345 430.974C345 440.528 352.773 448.301 362.327 448.301Z" fill="#93F1AD"/>
<path d="M362.327 484.871C341.114 484.871 323.841 467.625 323.841 446.385C323.841 425.145 341.114 407.899 362.327 407.899C383.568 407.899 400.841 425.145 400.841 446.385C400.841 467.625 383.568 484.871 362.327 484.871ZM362.327 404.039C338.982 404.039 319.981 423.039 319.981 446.385C319.981 469.731 338.982 488.731 362.327 488.731C385.7 488.731 404.7 469.731 404.7 446.385C404.7 423.039 385.7 404.039 362.327 404.039Z" fill="#93F1AD"/>
<path d="M80.2387 205.508C91.4122 205.508 101.02 198.788 105.258 189.179C105.258 179.436 100.319 175.523 93.9761 173.958C90.2786 177.115 85.4746 179.059 80.2387 179.059C74.9758 179.059 70.1988 177.115 66.4743 173.958C60.1319 175.523 55.1929 179.436 55.1929 189.179C59.4571 198.788 69.0382 205.508 80.2387 205.508Z" fill="#93F1AD"/>
<path d="M80.2381 175.199C89.7922 175.199 97.5651 167.426 97.5651 157.872C97.5651 148.318 89.7922 140.545 80.2381 140.545C70.684 140.545 62.9111 148.318 62.9111 157.872C62.9111 167.426 70.684 175.199 80.2381 175.199Z" fill="#93F1AD"/>
<path d="M80.2376 134.77C101.451 134.77 118.724 152.043 118.724 173.283C118.724 194.496 101.451 211.769 80.2376 211.769C58.9973 211.769 41.7243 194.496 41.7243 173.283C41.7243 152.043 58.9973 134.77 80.2376 134.77ZM80.2376 215.629C103.583 215.629 122.583 196.628 122.583 173.283C122.583 149.91 103.583 130.91 80.2376 130.91C56.8921 130.91 37.8918 149.91 37.8918 173.283C37.8918 196.628 56.8921 215.629 80.2376 215.629Z" fill="#93F1AD"/>
<path d="M451.392 241.187C447.694 244.345 442.89 246.288 437.654 246.288C432.391 246.288 427.614 244.345 423.89 241.187C417.547 242.779 412.608 246.666 412.608 256.409C416.846 266.044 426.454 272.764 437.654 272.764C448.828 272.764 458.436 266.044 462.673 256.409C462.673 246.666 457.734 242.779 451.392 241.187Z" fill="#93F1AD"/>
<path d="M437.654 242.429C447.208 242.429 454.981 234.656 454.981 225.102C454.981 215.548 447.208 207.775 437.654 207.775C428.099 207.775 420.327 215.548 420.327 225.102C420.327 234.656 428.099 242.429 437.654 242.429Z" fill="#93F1AD"/>
<mask id="mask0_501_3771" style="mask-type:luminance" maskUnits="userSpaceOnUse" x="395" y="197" width="85" height="86">
<path d="M395.254 197.924H480V282.939H395.254V197.924Z" fill="white"/>
</mask>
<g mask="url(#mask0_501_3771)">
<path d="M437.654 279C416.414 279 399.141 261.727 399.141 240.513C399.141 219.273 416.414 202 437.654 202C458.868 202 476.141 219.273 476.141 240.513C476.141 261.727 458.868 279 437.654 279ZM437.654 198.167C414.309 198.167 395.309 217.168 395.309 240.513C395.309 263.859 414.309 282.859 437.654 282.859C461 282.859 480 263.859 480 240.513C480 217.168 461 198.167 437.654 198.167Z" fill="#93F1AD"/>
</g>
<path d="M329.86 75.3938C341.061 75.3938 350.642 68.6735 354.906 59.0655C354.906 49.3224 349.967 45.409 343.625 43.8167C339.927 47.0014 335.123 48.9176 329.86 48.9176C324.624 48.9176 319.82 47.0014 316.123 43.8167C309.78 45.409 304.841 49.3224 304.841 59.0655C309.079 68.6735 318.687 75.3938 329.86 75.3938Z" fill="#93F1AD"/>
<path d="M329.86 45.058C339.441 45.058 347.187 37.2851 347.187 27.731C347.187 18.2039 339.441 10.4041 329.86 10.4041C320.305 10.4041 312.56 18.2039 312.56 27.731C312.56 37.2851 320.305 45.058 329.86 45.058Z" fill="#93F1AD"/>
<mask id="mask1_501_3771" style="mask-type:luminance" maskUnits="userSpaceOnUse" x="285" y="0" width="91" height="90">
<path d="M285.328 0.660889H375.148V89.7787H285.328V0.660889Z" fill="white"/>
</mask>
<g mask="url(#mask1_501_3771)">
<path d="M329.86 4.65533C351.1 4.65533 368.373 21.9283 368.373 43.1417C368.373 64.3821 351.1 81.6551 329.86 81.6551C308.647 81.6551 291.374 64.3821 291.374 43.1417C291.374 21.9283 308.647 4.65533 329.86 4.65533ZM329.86 85.4875C353.232 85.4875 372.233 66.4872 372.233 43.1417C372.233 19.7962 353.232 0.795898 329.86 0.795898C306.514 0.795898 287.514 19.7962 287.514 43.1417C287.514 66.4872 306.514 85.4875 329.86 85.4875Z" fill="#93F1AD"/>
</g>
<path d="M56.1104 475.668C52.4129 478.826 47.6089 480.742 42.346 480.742C37.1101 480.742 32.3061 478.826 28.6086 475.668C22.2661 477.233 17.3271 481.147 17.3271 490.89C21.5644 500.498 31.1725 507.245 42.346 507.245C53.5464 507.245 63.1545 500.498 67.3918 490.89C67.3918 481.147 62.4528 477.233 56.1104 475.668Z" fill="#93F1AD"/>
<path d="M42.3456 476.909C51.9267 476.909 59.6726 469.137 59.6726 459.582C59.6726 450.028 51.9267 442.255 42.3456 442.255C32.7915 442.255 25.0457 450.028 25.0457 459.582C25.0457 469.137 32.7915 476.909 42.3456 476.909Z" fill="#93F1AD"/>
<mask id="mask2_501_3771" style="mask-type:luminance" maskUnits="userSpaceOnUse" x="0" y="432" width="85" height="86">
<path d="M0 432.432H84.7726V517.339H0V432.432Z" fill="white"/>
</mask>
<g mask="url(#mask2_501_3771)">
<path d="M42.3458 513.48C21.1324 513.48 3.85943 496.207 3.85943 474.994C3.85943 453.754 21.1324 436.481 42.3458 436.481C63.5862 436.481 80.8591 453.754 80.8591 474.994C80.8591 496.207 63.5862 513.48 42.3458 513.48ZM42.3458 432.621C19.0003 432.621 0 451.621 0 474.994C0 498.339 19.0003 517.34 42.3458 517.34C65.7183 517.34 84.7186 498.339 84.7186 474.994C84.7186 451.621 65.7183 432.621 42.3458 432.621Z" fill="#93F1AD"/>
</g>
<path d="M295.233 276.867L289.889 278.189L291.886 286.205L297.23 284.856L295.233 276.867Z" fill="#93F1AD"/>
<path d="M346 264.182L334.718 266.989L336.715 275.005L348.024 272.171L346 264.182Z" fill="#93F1AD"/>
<path d="M329.077 268.392L317.796 271.226L319.793 279.215L331.075 276.408L329.077 268.392Z" fill="#93F1AD"/>
<path d="M379.871 255.707L368.59 258.541L370.587 266.53L381.868 263.696L379.871 255.707Z" fill="#93F1AD"/>
<path d="M362.949 259.945L351.667 262.751L353.638 270.767L364.946 267.933L362.949 259.945Z" fill="#93F1AD"/>
<path d="M312.155 272.629L300.874 275.463L302.871 283.452L314.152 280.645L312.155 272.629Z" fill="#93F1AD"/>
<path d="M385.511 254.304L387.508 262.293L392.852 260.97L390.828 252.982L385.511 254.304Z" fill="#93F1AD"/>
<path d="M257.367 250.688L265.194 253.305L266.948 248.097L259.121 245.479L257.367 250.688Z" fill="#93F1AD"/>
<path d="M288.163 158.79L295.962 161.408L299.606 150.585L291.779 147.967L288.163 158.79Z" fill="#93F1AD"/>
<path d="M282.71 175.037L290.537 177.655L294.153 166.833L286.326 164.215L282.71 175.037Z" fill="#93F1AD"/>
<path d="M293.587 142.542L301.414 145.16L305.03 134.311L297.23 131.693L293.587 142.542Z" fill="#93F1AD"/>
<path d="M299.038 126.295L306.865 128.913L310.481 118.063L302.655 115.445L299.038 126.295Z" fill="#93F1AD"/>
<path d="M277.258 191.312L285.085 193.929L288.728 183.08L280.901 180.462L277.258 191.312Z" fill="#93F1AD"/>
<path d="M304.491 110.021L312.291 112.639L315.934 101.816L308.107 99.1981L304.491 110.021Z" fill="#93F1AD"/>
<path d="M271.833 207.559L279.633 210.177L283.277 199.327L275.45 196.709L271.833 207.559Z" fill="#93F1AD"/>
<path d="M266.382 223.806L274.209 226.424L277.825 215.602L269.998 212.984L266.382 223.806Z" fill="#93F1AD"/>
<path d="M260.93 240.054L268.757 242.672L272.373 231.849L264.573 229.231L260.93 240.054Z" fill="#93F1AD"/>
<path d="M319.496 91.1821L311.669 88.5642L309.915 93.7731L317.742 96.391L319.496 91.1821Z" fill="#93F1AD"/>
<path d="M209.947 269.499L205.602 266.125L200.555 272.629L204.9 276.003L209.947 269.499Z" fill="#93F1AD"/>
<path d="M175.05 252.847L183.552 259.432L188.599 252.928L180.097 246.342L175.05 252.847Z" fill="#93F1AD"/>
<path d="M136.754 223.159L145.282 229.744L150.329 223.24L141.828 216.627L136.754 223.159Z" fill="#93F1AD"/>
<path d="M187.789 262.752L196.291 269.337L201.365 262.833L192.863 256.22L187.789 262.752Z" fill="#93F1AD"/>
<path d="M124.015 213.254L132.516 219.839L137.563 213.335L129.062 206.722L124.015 213.254Z" fill="#93F1AD"/>
<path d="M149.52 233.037L158.021 239.649L163.095 233.118L154.566 226.532L149.52 233.037Z" fill="#93F1AD"/>
<path d="M162.285 242.942L170.786 249.554L175.833 243.023L167.332 236.437L162.285 242.942Z" fill="#93F1AD"/>
<path d="M115.404 206.587L119.75 209.961L124.796 203.43L120.451 200.056L115.404 206.587Z" fill="#93F1AD"/>
<path d="M77.5127 439.179L82.9645 445.359L87.0938 441.716L81.615 435.535L77.5127 439.179Z" fill="#93F1AD"/>
<path d="M176.292 362.881L170.84 356.7L162.339 364.203L167.791 370.384L176.292 362.881Z" fill="#93F1AD"/>
<path d="M138.075 396.671L132.597 390.491L124.122 397.994L129.574 404.174L138.075 396.671Z" fill="#93F1AD"/>
<path d="M150.814 385.39L145.362 379.209L136.861 386.739L142.313 392.92L150.814 385.39Z" fill="#93F1AD"/>
<path d="M163.553 374.135L158.101 367.955L149.6 375.458L155.051 381.638L163.553 374.135Z" fill="#93F1AD"/>
<path d="M112.571 419.18L107.119 413L98.6172 420.502L104.069 426.683L112.571 419.18Z" fill="#93F1AD"/>
<path d="M125.309 407.926L119.858 401.745L111.356 409.248L116.835 415.429L125.309 407.926Z" fill="#93F1AD"/>
<path d="M85.8794 431.784L91.3312 437.964L99.8327 430.434L94.3809 424.254L85.8794 431.784Z" fill="#93F1AD"/>
<path d="M189.031 351.626L183.58 345.446L175.078 352.949L180.557 359.129L189.031 351.626Z" fill="#93F1AD"/>
<path d="M201.797 340.345L196.318 334.164L187.844 341.694L193.296 347.848L201.797 340.345Z" fill="#93F1AD"/>
<path d="M210.164 332.95L204.685 326.77L200.583 330.413L206.034 336.594L210.164 332.95Z" fill="#93F1AD"/>
<path d="M282.98 338.996L279.741 334.542L273.075 339.4L276.313 343.854L282.98 338.996Z" fill="#93F1AD"/>
<path d="M327.026 399.586L321.169 391.489L314.503 396.347L320.36 404.417L327.026 399.586Z" fill="#93F1AD"/>
<path d="M318.227 387.468L312.344 379.371L305.677 384.229L311.561 392.326L318.227 387.468Z" fill="#93F1AD"/>
<path d="M300.603 363.232L294.72 355.162L288.053 359.993L293.937 368.09L300.603 363.232Z" fill="#93F1AD"/>
<path d="M309.402 375.35L303.518 367.28L296.852 372.111L302.736 380.208L309.402 375.35Z" fill="#93F1AD"/>
<path d="M291.778 351.114L285.894 343.044L279.228 347.875L285.112 355.972L291.778 351.114Z" fill="#93F1AD"/>
<path d="M333.206 408.06L329.967 403.607L323.301 408.465L326.539 412.918L333.206 408.06Z" fill="#93F1AD"/>
</svg>
