<svg width="507" height="271" viewBox="0 0 507 271" fill="none" xmlns="http://www.w3.org/2000/svg">
<path d="M365.758 124.433C365.758 124.433 356.638 112.945 366.314 106.553C366.314 106.553 373.312 103.068 378.794 103.717C378.794 103.717 370.179 115.685 372.63 117.055C375.081 118.449 381.195 103.068 381.195 103.068C381.195 103.068 396.631 102.563 401.406 105.111C401.406 105.111 387.612 114.531 390.34 115.3C393.069 116.07 407.874 106.889 407.874 106.889C407.874 106.889 421.997 110.037 420.683 118.281C419.369 126.524 414.291 128.783 412.144 128.446C409.996 128.086 397.642 122.751 397.263 124.433C396.884 126.091 404.135 132.051 409.44 132.628C409.44 132.628 398.678 142.577 392.185 139.141C385.692 135.704 385.439 130.825 381.397 128.783C377.354 126.716 373.792 126.524 375.384 128.47C376.975 130.417 384.403 132.676 386.525 136.809C388.648 140.967 390.618 143.803 383.746 142.385C376.9 140.991 365.96 135.488 365.834 129.96C365.758 124.433 365.758 124.433 365.758 124.433Z" fill="#82B378"/>
<path d="M413.71 118.112C413.71 118.112 375.03 114.387 365.783 124.433C365.783 124.433 363.535 129.72 357.395 134.286L356.334 136.593C356.334 136.593 363.484 130.249 365.935 129.984C365.909 129.984 363.004 116.694 413.71 118.112Z" fill="#82B378"/>
<path d="M357.37 134.286C357.37 134.286 348.654 139.645 347.391 150.075L348.881 150.291C348.881 150.291 352.242 139.621 357.32 135.68C362.423 131.738 357.37 134.286 357.37 134.286Z" fill="#82B378"/>
<path d="M321.039 96.9388C321.039 96.9388 300.827 86.1722 310.251 71.5606C310.251 71.5606 317.805 62.5965 325.89 60.2894C325.89 60.2894 321.57 82.0867 325.89 82.5914C330.21 83.0961 328.846 57.9822 328.846 57.9822C328.846 57.9822 350.144 48.2491 358.506 49.0182C358.506 49.0182 345.293 70.3109 349.613 69.7822C353.933 69.2775 368.763 47.7204 368.763 47.7204C368.763 47.7204 390.592 43.8752 394.104 56.1798C397.615 68.4844 391.956 74.6367 388.722 75.4057C385.488 76.1748 364.721 75.9104 365.277 78.4819C365.808 81.0534 379.829 85.1389 387.661 82.8317C387.661 82.8317 379.046 103.091 367.702 102.058C356.384 101.024 352.872 94.3673 345.874 93.8626C338.876 93.3579 333.747 95.1363 337.259 96.9388C340.77 98.7412 352.619 97.5155 358.279 102.106C363.938 106.672 368.511 109.508 358.001 111.55C347.491 113.593 328.618 112.319 324.854 104.629C321.039 96.9388 321.039 96.9388 321.039 96.9388Z" fill="#A8D29F"/>
<path d="M384.099 60.0249C384.099 60.0249 327.481 77.4724 321.013 96.9387C321.013 96.9387 321.291 105.662 315.632 115.66V119.505C315.632 119.505 321.569 106.431 324.803 104.629C324.803 104.629 312.145 87.7102 384.099 60.0249Z" fill="#82B378"/>
<path d="M315.632 115.66C315.632 115.66 306.891 128.277 311.868 143.609L314.116 143.033C314.116 143.033 311.944 126.138 316.491 117.63C321.089 109.123 315.632 115.66 315.632 115.66Z" fill="#82B378"/>
<path d="M214.424 102.467C214.424 102.467 237.945 92.9979 229.482 75.8869C229.482 75.8869 222.357 65.1925 213.792 61.7318C213.792 61.7318 215.738 86.1007 210.963 86.1728C206.163 86.2449 210.862 58.8479 210.862 58.8479C210.862 58.8479 188.755 45.7262 179.509 45.6061C179.509 45.6061 191.282 70.4556 186.608 69.3981C181.959 68.3407 168.443 43.0346 168.443 43.0346C168.443 43.0346 144.997 36.3055 139.591 49.3792C134.184 62.4528 139.591 69.8548 143.052 71.0804C146.488 72.3061 169.277 74.3969 168.367 77.1606C167.457 79.9003 151.566 82.7842 143.305 79.3476C143.305 79.3476 150.177 102.539 162.708 102.731C175.239 102.923 179.938 96.002 187.669 96.2664C195.425 96.5067 200.807 99.0781 196.739 100.64C192.671 102.202 179.837 99.5107 173.041 103.885C166.245 108.259 160.863 110.806 172.131 114.267C183.399 117.727 204.242 118.496 209.346 110.494C214.424 102.467 214.424 102.467 214.424 102.467Z" fill="url(#paint0_linear_385_4542)"/>
<path d="M149.999 54.7385C149.999 54.7385 209.8 80.3811 214.424 102.467C214.424 102.467 213.009 111.984 217.935 123.591L217.455 127.797C217.455 127.797 212.63 112.777 209.295 110.446C209.32 110.446 225.363 93.3826 149.999 54.7385Z" fill="url(#paint1_linear_385_4542)"/>
<path d="M217.961 123.591C217.961 123.591 225.919 138.419 218.517 154.665L216.117 153.776C216.117 153.776 220.664 135.511 216.748 125.658C212.807 115.805 217.961 123.591 217.961 123.591Z" fill="#82B378"/>
<path d="M166.169 157.429C162.001 151.733 161.546 146.422 161.546 146.422C161.546 146.422 173.041 138.564 166.27 130.296C166.27 130.296 161.041 125.346 155.962 124.457C155.962 124.457 160.156 137.41 157.579 138.011C155.002 138.612 154.017 123.255 154.017 123.255C154.017 123.255 140.374 118.713 135.372 119.746C135.372 119.746 144.922 131.81 142.269 131.786C139.616 131.762 129.056 119.65 129.056 119.65C129.056 119.65 115.514 118.737 114.276 126.427C113.038 134.142 116.904 137.506 118.925 137.746C120.946 138.011 133.528 136.497 133.401 138.083C133.25 139.669 125.039 143.082 120.137 142.192C120.137 142.192 126.833 153.944 133.629 152.574C140.425 151.205 142.067 146.927 146.311 146.158C150.531 145.389 153.764 146.158 151.768 147.456C149.773 148.777 142.471 148.801 139.364 151.974C136.256 155.122 133.679 157.141 140.197 157.693C146.741 158.246 158.11 156.251 159.828 151.325C159.904 151.108 159.979 150.916 160.055 150.7C159.954 151.108 159.828 151.325 159.828 151.325C161.091 151.853 163.213 154.785 164.729 157.044C164.957 157.429 165.285 157.958 165.79 158.679C165.992 159.015 166.169 159.279 166.27 159.472C169.15 164.591 169.049 173.963 169.049 173.963L170.464 174.156C172.384 164.519 166.169 157.429 166.169 157.429Z" fill="#82B378"/>
<path d="M89.2887 26.0913C89.1877 25.4905 87.7224 19.1699 77.4145 20.2514C77.4145 20.2514 82.5431 20.1312 83.7306 22.1259C83.7306 22.1259 79.8904 19.987 77.2376 21.2127C74.5596 22.4383 73.6501 27.3169 73.8522 28.855C74.0796 30.3931 76.3786 35.1034 78.2229 35.2957C78.9303 35.3678 79.6883 35.2236 80.3704 35.0073C80.0167 35.7763 79.663 36.6175 79.3598 37.5307C76.4797 46.0862 81.8863 53.2959 85.2212 51.9741C87.3687 51.109 88.5308 54.6418 88.5308 54.6418L107.58 35.0554C107.58 35.0073 97.2723 20.5158 89.2887 26.0913Z" fill="#2C3A64"/>
<path d="M114.098 262.113L109.475 263.748C109.475 263.748 89.3645 237.216 86.8886 213.856C86.4339 209.699 86.5854 205.637 87.5455 201.912C87.5455 201.912 87.3434 200.855 87.0149 198.956C86.8633 198.067 86.6612 197.01 86.4339 195.808C85.777 192.251 84.8675 187.373 83.8569 181.821C81.482 169.036 78.425 152.694 76.0502 140.702L77.2881 140.317L90.7793 136.184L93.5584 127.748L103.614 125.225C103.614 125.225 105.862 129.406 107.858 149.137C108.237 151.733 108.565 154.592 108.818 157.669C109.601 167.113 109.652 178.841 107.858 192.251C107.403 195.688 106.822 199.221 106.09 202.874C105.559 205.541 105.483 209.17 105.711 213.352C106.721 232.457 114.098 262.113 114.098 262.113Z" fill="#2B478B"/>
<path d="M108.818 157.693L86.9894 198.98C86.8378 198.091 86.6356 197.034 86.4083 195.832C85.7514 192.275 84.8419 187.397 83.8313 181.845C81.4565 169.06 78.3995 152.718 76.0246 140.726L77.2626 140.341L90.7538 136.208L93.5328 127.772L103.588 125.249C103.588 125.249 105.837 129.43 107.833 149.161C108.237 151.732 108.565 154.592 108.818 157.693Z" fill="#233862"/>
<path d="M99.2174 130.512L98.7121 126.378C90.2485 128.517 67.6116 120.394 67.6116 120.394C67.6116 120.394 59.4007 127.244 60.487 143.706C61.0176 151.733 61.9777 185.834 62.9882 195.928C63.3419 199.581 63.6704 202.177 63.7967 203.234C63.8472 203.546 63.7209 203.859 63.544 204.123C62.0787 206.502 60.8408 208.978 59.8302 211.525C49.9771 236.471 61.346 267.208 61.346 267.208L64.302 266.079C64.302 266.079 70.7697 231.881 76.0247 216.764C76.9089 214.193 77.7679 212.198 78.5511 210.996C80.8249 207.488 82.9471 201.768 84.8672 194.943C88.5053 182.061 91.436 165.311 93.3813 152.357C93.6592 152.405 99.2174 130.512 99.2174 130.512Z" fill="#2B478B"/>
<path d="M112.861 97.4677C113.037 97.6359 113.189 97.7801 113.391 97.9483C120.617 104.365 130.369 110.037 135.599 111.286C139.035 112.127 146.589 110.998 152.879 109.772C157.073 108.979 160.711 108.114 162.202 107.778C162.682 107.681 162.96 107.585 162.96 107.585L162.303 103.548C162.303 103.548 158.539 103.259 153.865 102.755C147.346 102.034 139.085 100.904 136.988 99.7267C132.087 96.963 123.472 85.3313 116.574 78.0014C116.221 77.5929 115.842 77.2083 115.488 76.8479C115.235 76.5835 114.958 76.2951 114.705 76.0308C114.654 75.9827 114.579 75.8866 114.503 75.8385C114.174 75.5501 113.922 75.2858 113.644 75.0454C113.644 75.0214 113.593 74.9974 113.543 74.9733C112.305 73.7958 110.157 72.3778 110.157 72.3778C108.945 71.729 107.959 71.6088 107.252 72.1615C107.252 72.1615 106.342 73.0027 105.458 74.5888C105.281 74.9253 105.079 75.2858 104.902 75.6943C104.751 75.9106 104.675 76.1509 104.624 76.3672C104.043 77.8332 103.614 79.6597 103.69 81.8226C103.74 83.4568 104.069 85.2352 104.826 87.2058C106.014 90.4502 109.071 94.0551 112.861 97.4677Z" fill="#FFB27D"/>
<path d="M106.57 80.4766C104.119 81.9907 101.062 83.2403 97.247 83.9613C82.9474 86.701 77.8439 75.1414 76.0502 67.2588C78.0208 66.2494 79.8398 66.0812 80.9009 65.9851C81.9368 65.889 83.0232 65.8409 83.9074 65.8409C85.5243 64.7114 88.0508 60.0251 88.8087 52.6711L89.4656 52.8634L100.582 56.0837C100.582 56.0837 99.9756 59.4483 99.6219 62.6446C99.344 65.144 99.2429 67.5232 99.7229 68.124C100.582 68.3162 101.112 68.4604 101.112 68.4604C101.239 68.6767 104.346 73.8437 106.57 80.4766Z" fill="#FFB27D"/>
<path d="M111.547 88.9839C111.471 89.2722 111.395 89.5606 111.319 89.849C108.818 97.8278 106.772 129.719 106.772 129.719C108.111 133.708 83.7304 134.525 70.2897 132.675C65.4137 132.002 61.9525 130.992 61.7251 129.647C59.325 124.48 65.2116 114.867 68.597 109.964C69.0265 109.339 69.3802 108.714 69.6834 108.042C70.4413 106.359 70.8203 104.533 70.7445 102.682C70.6434 100.159 70.4161 97.7076 70.1382 95.4005C69.6076 91.0507 68.9255 87.2776 68.5465 84.5859C69.2539 83.913 69.936 83.2882 70.5929 82.7114C71.5782 81.7982 72.4372 80.957 73.0183 80.1399C73.6752 79.2507 74.0542 78.3856 73.9784 77.4723C73.9026 76.7754 73.7762 76.0785 73.5994 75.4055C73.5236 75.0691 73.4225 74.7567 73.3215 74.4202C72.2351 71.0317 70.214 68.0757 70.214 68.0757C73.852 66.0569 80.8503 65.9849 80.8503 65.9849C80.8503 65.9849 80.9008 66.3453 80.9766 66.9462C81.305 69.3254 82.2651 75.4777 83.2504 76.511C84.4883 77.8088 103.866 81.6059 104.523 79.5151C105.18 77.4483 101.188 68.7726 101.037 68.4602C107.252 69.8541 109.93 71.4402 110.056 71.5363C106.746 74.3241 113.315 81.3175 111.547 88.9839Z" fill="#5C3DDB"/>
<path d="M100.556 56.0353C100.556 56.0353 99.9499 59.3998 99.5962 62.5961C93.2801 61.8271 90.501 56.0112 89.4399 52.8149L100.556 56.0353Z" fill="#ED985F"/>
<path d="M102.35 59.2804C102.35 59.2804 87.3178 58.0788 88.2526 49.1868C89.1873 40.2948 87.8736 34.1665 97.4993 34.5511C107.125 34.9356 108.641 38.5164 109.096 41.5445C109.525 44.5726 106.291 59.3525 102.35 59.2804Z" fill="#FFB27D"/>
<path d="M109.171 36.5456C107.125 33.6617 105.331 34.0702 104.245 34.7912C96.4887 29.7204 90.5515 35.5602 90.5515 35.5602C88.8841 41.8327 83.6544 45.029 83.6544 45.029C83.6544 45.029 86.2313 46.9035 92.6738 45.9663C94.6444 45.6779 96.5139 44.5484 98.1309 43.1064C95.1497 46.9276 91.36 49.5231 91.36 49.5231C99.2425 46.9276 103.31 37.2665 103.714 36.2331C104.548 37.0983 106.165 38.9728 106.544 40.7032C107.049 43.0343 106.898 47.7206 108.338 47.6966C108.363 47.6966 112.203 40.8954 109.171 36.5456Z" fill="#2C3A64"/>
<path d="M176.198 103.019C174.708 104.389 173.167 107.778 168.543 107.73C165.234 107.706 161.899 108.066 160.282 108.234C159.65 108.33 159.296 108.379 159.296 108.379L159.12 103.38C159.12 103.38 159.195 103.38 159.347 103.356C160.459 103.188 166.143 102.37 168.392 100.953C170.918 99.3423 176.805 100.832 176.805 100.832C176.805 100.832 177.714 101.698 176.198 103.019Z" fill="#FFB27D"/>
<path d="M78.5007 269.515H55.1816C55.1816 269.515 54.6258 266.127 55.8385 263.555C57.0006 261.104 58.845 259.974 58.3902 256.994C59.8808 258.436 62.2809 260.071 65.6663 259.638C66.0706 260.287 68.3444 263.675 69.7087 264.637C71.2245 265.694 78.0206 265.31 78.5007 269.515Z" fill="#233862"/>
<path d="M128.6 269.516H105.281C105.281 269.516 104.397 265.983 105.938 263.555C107.302 261.417 106.772 260.215 105.761 258.437C106.822 258.845 108.187 259.23 109.702 259.134C110.865 259.061 112.102 258.557 113.164 257.98C114.174 259.061 118.469 263.7 119.808 264.613C121.324 265.694 128.12 265.31 128.6 269.516Z" fill="#233862"/>
<path d="M98.7628 54.1375C98.7628 54.1375 98.965 55.3156 102.022 55.3156C102.022 55.3156 104.574 55.3156 104.574 54.0413C104.599 54.0413 102.174 52.9834 98.7628 54.1375Z" fill="white"/>
<path d="M73.4731 110.637C72.5383 116.189 68.3191 127.364 70.2897 132.675C65.4137 132.002 61.9525 130.993 61.7251 129.647C59.325 124.48 65.2116 114.867 68.597 109.964C69.0265 109.339 69.3802 108.715 69.6834 108.042C70.4413 106.359 70.8203 104.533 70.7445 102.682C70.6434 100.159 70.4161 97.7078 70.1382 95.4007C70.1634 95.3766 74.4584 104.725 73.4731 110.637Z" fill="#795BF0"/>
<path d="M106.494 73.1225C106.645 78.0732 110.41 91.6274 111.294 89.849C112.304 87.8063 116.246 80.0438 118.115 79.7554C118.014 79.3949 110.435 71.4162 110.106 71.5123C110.106 71.5123 108.06 72.1131 106.494 73.1225Z" fill="url(#paint2_linear_385_4542)"/>
<path d="M70.719 143.225L66.8536 145.676C66.8536 145.676 65.8683 144.523 64.3271 142.648C63.8724 142.095 63.6197 141.759 63.6197 141.759C62.3818 140.245 60.967 138.418 59.4006 136.4L59.3753 136.376C56.7731 132.891 53.8929 128.902 51.6949 125.321C50.1791 122.773 48.9916 120.418 48.4106 118.568C48.3348 118.375 48.3095 118.231 48.2842 118.015C47.1473 113.305 49.2443 103.98 52.5539 94.8958C53.0087 93.6461 53.4887 92.3965 53.9435 91.1948C55.712 86.7248 57.6826 82.5432 59.6785 79.1546C60.8406 77.1118 62.0028 75.3335 63.1397 74.0117C63.5187 73.531 63.8976 73.0985 64.2766 72.7139C64.4787 72.4736 64.7061 72.2573 64.9082 72.041C67.2326 72.2333 72.1086 73.0984 75.7214 77.0878C75.6709 77.3041 75.5951 77.4964 75.5193 77.7127C74.0539 82.2067 71.8054 87.7102 69.4558 93.1174C68.1926 96.0734 66.8788 99.0294 65.7419 101.793C65.0093 103.451 64.3524 105.038 63.7713 106.479C62.6597 109.267 61.826 111.598 61.4975 113.233C61.2701 114.29 61.5986 116.285 62.1797 118.712C63.2155 122.966 65.1609 128.709 66.9799 133.564C67.7126 135.607 68.4452 137.481 69.0769 139.043C70.0622 141.567 70.719 143.225 70.719 143.225Z" fill="#FFB27D"/>
<path d="M72.4116 91.0991C68.5461 85.5476 57.455 83.1684 57.455 83.1684C63.6954 64.3029 80.1172 66.0573 80.1172 66.0573C80.1172 66.0573 74.1801 85.6677 72.4116 91.0991Z" fill="url(#paint3_linear_385_4542)"/>
<path d="M66.8535 145.677C66.8535 145.677 67.864 147.094 67.9904 148.128C68.1167 149.161 69.0767 152.55 70.3147 153.631C71.5526 154.713 74.4075 156.876 74.8117 156.539C75.216 156.203 76.3529 153.655 75.2918 151.853C74.8117 151.036 74.1549 148.777 73.2959 148.224C72.26 147.551 70.7442 143.201 70.7442 143.201L66.8535 145.677Z" fill="#FFB27D"/>
<path d="M70.7438 143.778C70.7438 143.778 73.8261 145.268 74.2303 146.445C74.6345 147.623 76.3778 150.026 76.2009 150.315C76.0241 150.603 73.346 148.993 72.4365 147.503C71.527 146.037 70.7438 143.778 70.7438 143.778Z" fill="#FFB27D"/>
<path d="M143.987 129.935L256.691 65.7687C262.906 62.236 270.662 62.236 276.877 65.7687L389.582 129.959V234.572L143.987 222.868V129.935Z" fill="#5C3DDB"/>
<path d="M368.461 83.6011H165.133V250.746H368.461V83.6011Z" fill="#FCECDB"/>
<path d="M173.42 92.8773C174.578 92.8773 175.517 91.9843 175.517 90.8826C175.517 89.781 174.578 88.8879 173.42 88.8879C172.262 88.8879 171.323 89.781 171.323 90.8826C171.323 91.9843 172.262 92.8773 173.42 92.8773Z" fill="#EFCBAB"/>
<path d="M360.023 92.8773C361.181 92.8773 362.12 91.9843 362.12 90.8826C362.12 89.781 361.181 88.8879 360.023 88.8879C358.865 88.8879 357.926 89.781 357.926 90.8826C357.926 91.9843 358.865 92.8773 360.023 92.8773Z" fill="#EFCBAB"/>
<path d="M360.023 90.667H173.42V91.0998H360.023V90.667Z" fill="#EFCBAB"/>
<path d="M173.647 90.0901H173.191V267.593H173.647V90.0901Z" fill="#EFCBAB"/>
<path d="M360.326 90.0901H359.87V267.593H360.326V90.0901Z" fill="#EFCBAB"/>
<path d="M389.582 129.647V269.516H143.987V129.647L266.772 199.581L389.582 129.647Z" fill="#7C5CFE"/>
<path d="M143.987 269.516L256.464 192.804C262.628 188.599 270.915 188.599 277.079 192.804L389.557 269.516H143.987Z" fill="#5C3DDB"/>
<path d="M304.264 106.744H230.138C229.052 106.744 228.193 105.903 228.193 104.894C228.193 103.86 229.077 103.043 230.138 103.043H304.264C305.351 103.043 306.21 103.884 306.21 104.894C306.235 105.903 305.351 106.744 304.264 106.744Z" fill="#EFCBAB"/>
<path d="M323.364 114.218H211.039C209.952 114.218 209.093 113.377 209.093 112.368C209.093 111.334 209.977 110.517 211.039 110.517H323.364C324.451 110.517 325.309 111.358 325.309 112.368C325.309 113.377 324.451 114.218 323.364 114.218Z" fill="#EFCBAB"/>
<path d="M308.787 137.387H227.511C226.728 137.387 226.096 136.786 226.096 136.041C226.096 135.295 226.728 134.694 227.511 134.694H308.787C309.57 134.694 310.202 135.295 310.202 136.041C310.202 136.786 309.57 137.387 308.787 137.387Z" fill="#EFCBAB"/>
<path d="M235.697 144.428H212.782C211.999 144.428 211.368 143.827 211.368 143.082C211.368 142.336 211.999 141.735 212.782 141.735H235.697C236.48 141.735 237.112 142.336 237.112 143.082C237.112 143.827 236.48 144.428 235.697 144.428Z" fill="#EFCBAB"/>
<path d="M270.259 144.428H242.569C241.786 144.428 241.155 143.827 241.155 143.082C241.155 142.336 241.786 141.735 242.569 141.735H270.259C271.042 141.735 271.674 142.336 271.674 143.082C271.674 143.827 271.017 144.428 270.259 144.428Z" fill="#EFCBAB"/>
<path d="M323.542 144.428H275.691C274.908 144.428 274.276 143.827 274.276 143.082C274.276 142.336 274.908 141.735 275.691 141.735H323.542C324.325 141.735 324.957 142.336 324.957 143.082C324.957 143.827 324.325 144.428 323.542 144.428Z" fill="#EFCBAB"/>
<path d="M270.435 152.599H225.919C225.136 152.599 224.505 151.998 224.505 151.253C224.505 150.507 225.136 149.906 225.919 149.906H270.435C271.218 149.906 271.85 150.507 271.85 151.253C271.85 151.998 271.218 152.599 270.435 152.599Z" fill="#EFCBAB"/>
<path d="M310.404 152.599H275.337C274.553 152.599 273.922 151.998 273.922 151.253C273.922 150.507 274.553 149.906 275.337 149.906H310.404C311.187 149.906 311.819 150.507 311.819 151.253C311.819 151.998 311.187 152.599 310.404 152.599Z" fill="#EFCBAB"/>
<path d="M282.941 169.228C280.263 171.343 277.408 173.098 274.377 174.708C274.629 173.939 274.857 173.146 274.806 172.449C274.756 171.487 273.947 171.055 273.113 170.646C272.911 170.55 272.734 170.43 272.532 170.334C272.835 170.045 273.012 169.637 272.81 169.18C272.456 168.435 271.496 168.555 271.168 169.252C271.117 169.372 271.067 169.493 271.067 169.613C270.941 169.541 270.84 169.469 270.738 169.372C271.244 168.483 271.699 167.594 272.128 166.681C272.229 166.465 272.103 166.224 271.926 166.104C271.219 165.599 270.233 165.768 269.652 166.392C268.97 167.161 269.147 168.315 269.475 169.18C269.501 169.252 269.526 169.3 269.551 169.372C268.919 170.454 268.237 171.511 267.505 172.545C267.429 172.473 267.378 172.425 267.303 172.353C267.1 172.184 266.898 171.944 266.721 171.704C267.05 170.863 267.277 169.997 267.353 169.084C267.378 168.676 266.949 168.483 266.595 168.603C265.61 168.964 265.079 169.901 265.206 170.887C265.256 171.223 265.357 171.559 265.534 171.848C265.307 172.304 265.054 172.737 264.751 173.17C264.549 173.434 264.7 173.722 264.928 173.867C264.599 174.9 264.17 175.957 263.412 176.702C262.805 177.303 261.669 177.76 260.911 177.039C260.431 176.582 260.38 175.813 260.304 175.212C260.153 173.722 260.026 172.184 260.077 170.694C260.102 169.997 260.178 169.276 260.431 168.603C260.582 168.195 260.81 167.57 261.012 168.267C261.113 168.627 260.961 169.156 260.936 169.517C260.86 170.142 261.896 170.238 261.972 169.589C262.048 168.844 262.401 167.282 261.517 166.801C260.784 166.417 260.102 166.969 259.774 167.546C258.536 169.637 259.041 172.521 259.218 174.804C259.369 176.63 260.077 178.841 262.528 178.264C264.827 177.712 265.66 174.972 266.191 173.073C266.216 172.953 266.216 172.857 266.166 172.761C266.166 172.737 266.191 172.737 266.191 172.713C266.292 172.809 266.393 172.905 266.469 172.977C266.595 173.098 266.721 173.218 266.848 173.338C266.595 173.65 266.368 173.963 266.115 174.275C265.964 174.443 266.014 174.708 266.166 174.876C266.949 175.765 268.338 175.116 268.288 174.011C268.288 173.77 268.212 173.53 268.111 173.338C268.844 172.353 269.526 171.319 270.132 170.286C270.461 170.598 270.865 170.79 271.395 170.766C271.421 170.766 271.471 170.766 271.496 170.766C271.774 171.031 272.103 171.247 272.406 171.415C272.709 171.583 273.038 171.68 273.315 171.872C273.821 172.256 273.669 172.689 273.543 173.242C273.391 173.963 273.164 174.684 272.936 175.381C271.875 175.957 270.865 176.678 270.511 177.832C270.183 178.889 270.486 179.995 271.421 180.644C271.699 180.836 272.077 180.692 272.204 180.403C272.785 179.009 273.341 177.616 273.795 176.174C273.821 176.126 273.821 176.078 273.846 176.029C274.781 175.525 275.741 175.092 276.65 174.563C279.076 173.194 281.4 171.632 283.573 169.925C284.129 169.565 283.446 168.82 282.941 169.228ZM270.258 167.907C270.258 167.498 270.461 166.777 270.941 166.801C270.713 167.258 270.511 167.69 270.258 168.123C270.284 168.051 270.284 167.979 270.258 167.907ZM271.597 179.37C271.168 178.577 271.8 177.616 272.507 176.991C272.229 177.784 271.926 178.577 271.597 179.37Z" fill="#F99746"/>
<g opacity="0.5">
<path opacity="0.5" d="M262.402 14.9648L272.987 37.1708L233.954 53.9935L223.368 31.7875L248.178 34.4791L262.402 14.9648Z" fill="#CDE0FB"/>
<path opacity="0.5" d="M223.368 31.7875L262.376 14.9648L250.704 33.6621C249.795 35.128 248.001 35.9211 246.232 35.6087L223.368 31.7875Z" fill="#B1CFF2"/>
</g>
<g opacity="0.5">
<path opacity="0.5" d="M33.0006 160.048L38.5841 174.251L13.6228 183.095L8.06464 168.892L23.3243 171.584L33.0006 160.048Z" fill="#CDE0FB"/>
<path opacity="0.5" d="M8.06464 168.892L33.0006 160.048L24.9413 171.175C24.3097 172.064 23.1728 172.473 22.0864 172.208L8.06464 168.892Z" fill="#B1CFF2"/>
</g>
<g opacity="0.5">
<path opacity="0.5" d="M460.247 75.4785L452.415 103.38L403.427 90.9553L411.259 63.0537L431.824 83.2169L460.247 75.4785Z" fill="#CDE0FB"/>
<path opacity="0.5" d="M411.26 63.0537L460.247 75.4785L434.831 84.2743C432.835 84.9713 430.587 84.4185 429.197 82.8804L411.26 63.0537Z" fill="#B1CFF2"/>
</g>
<path d="M22.2628 222.869C21.0754 222.869 19.9385 222.845 18.8521 222.821C18.7258 222.821 18.6247 222.725 18.6247 222.604C18.6247 222.484 18.7258 222.388 18.8521 222.388C19.9385 222.412 21.0754 222.436 22.2628 222.436C22.3891 222.436 22.4902 222.532 22.4902 222.652C22.4902 222.773 22.3891 222.869 22.2628 222.869ZM25.6735 222.845C25.5472 222.845 25.4461 222.749 25.4461 222.628C25.4461 222.508 25.5472 222.412 25.6735 222.412C26.7599 222.388 27.922 222.364 29.0842 222.34C29.2105 222.34 29.3116 222.436 29.3116 222.556C29.3116 222.677 29.2105 222.773 29.0842 222.773C27.922 222.797 26.7599 222.821 25.6735 222.845ZM15.4414 222.677C14.2287 222.604 13.0665 222.508 12.0307 222.412C11.9044 222.388 11.8033 222.292 11.8286 222.172C11.8539 222.052 11.9549 221.956 12.0812 221.98C13.1423 222.076 14.2792 222.172 15.4667 222.244C15.593 222.244 15.694 222.364 15.6688 222.484C15.6688 222.58 15.5677 222.677 15.4414 222.677ZM32.4949 222.628C32.3686 222.628 32.2675 222.532 32.2675 222.412C32.2675 222.292 32.3686 222.196 32.4949 222.196C33.5813 222.148 34.7434 222.1 35.9056 222.028C36.0319 222.028 36.133 222.124 36.133 222.22C36.133 222.34 36.0319 222.436 35.9308 222.46C34.7434 222.532 33.6065 222.58 32.4949 222.628ZM39.3163 222.268C39.19 222.268 39.0889 222.172 39.0889 222.076C39.0889 221.956 39.1647 221.859 39.291 221.835C40.4027 221.763 41.5396 221.691 42.7017 221.595C42.828 221.595 42.9291 221.667 42.9544 221.787C42.9544 221.907 42.8786 222.004 42.7522 222.028C41.5901 222.1 40.4532 222.196 39.3163 222.268ZM8.67054 221.956C8.64527 221.956 8.64528 221.956 8.62001 221.956C7.35679 221.739 6.24515 221.475 5.2851 221.186C5.15878 221.138 5.10825 221.018 5.13352 220.922C5.18404 220.802 5.31037 220.754 5.41143 220.778C6.34621 221.066 7.45784 221.307 8.6958 221.523C8.82212 221.547 8.89792 221.667 8.87265 221.763C8.87265 221.883 8.77159 221.956 8.67054 221.956ZM46.1124 221.763C45.9861 221.763 45.885 221.667 45.885 221.571C45.885 221.451 45.9608 221.355 46.0872 221.331C47.1988 221.235 48.3357 221.138 49.4978 221.042C49.6242 221.042 49.7252 221.114 49.7505 221.235C49.7505 221.355 49.6747 221.451 49.5484 221.475C48.3862 221.571 47.2493 221.667 46.1124 221.763C46.1377 221.763 46.1124 221.763 46.1124 221.763ZM52.9085 221.186C52.7822 221.186 52.7064 221.114 52.6812 220.994C52.6812 220.874 52.757 220.778 52.8833 220.754C53.9949 220.658 55.1318 220.538 56.2687 220.441C56.395 220.441 56.4961 220.514 56.5214 220.634C56.5466 220.754 56.4456 220.85 56.3192 220.874C55.2076 220.97 54.0707 221.066 52.9085 221.186C52.9338 221.186 52.9338 221.186 52.9085 221.186ZM59.7047 220.514C59.5784 220.514 59.5026 220.441 59.4773 220.321C59.452 220.201 59.5531 220.105 59.6794 220.081C60.791 219.961 61.9279 219.841 63.0648 219.721C63.1912 219.696 63.2922 219.793 63.3175 219.913C63.3428 220.033 63.2417 220.129 63.1154 220.153C61.9785 220.273 60.8668 220.393 59.7047 220.514C59.7299 220.514 59.7047 220.514 59.7047 220.514ZM2.27864 219.841C2.22811 219.841 2.17758 219.817 2.15232 219.793C1.49544 219.336 1.01542 218.831 0.737508 218.255C0.535392 217.846 0.358541 217.437 0.232219 217.029C0.206955 216.909 0.257485 216.789 0.383807 216.765C0.510129 216.741 0.636453 216.789 0.661717 216.909C0.78804 217.293 0.939625 217.678 1.14174 218.086C1.39438 218.591 1.82388 219.048 2.40496 219.456C2.50602 219.528 2.53128 219.672 2.45549 219.769C2.43022 219.817 2.35443 219.841 2.27864 219.841ZM66.5008 219.793C66.3997 219.793 66.2987 219.721 66.2734 219.6C66.2482 219.48 66.3492 219.384 66.4755 219.36C67.6124 219.24 68.7241 219.096 69.861 218.976C69.9873 218.951 70.0883 219.048 70.1136 219.168C70.1389 219.288 70.0378 219.384 69.9115 219.408C68.7746 219.528 67.6377 219.672 66.5261 219.793C66.5008 219.793 66.5008 219.793 66.5008 219.793ZM73.2717 219C73.1706 219 73.0696 218.927 73.0443 218.807C73.019 218.687 73.1201 218.591 73.2464 218.567C74.358 218.423 75.4949 218.303 76.6318 218.158C76.7582 218.134 76.8592 218.231 76.8845 218.351C76.9098 218.471 76.8087 218.567 76.6824 218.591C75.5455 218.735 74.4338 218.855 73.2969 219H73.2717ZM80.0173 218.182C79.9162 218.182 79.8152 218.11 79.7899 217.99C79.7646 217.87 79.8657 217.774 79.992 217.75C81.1289 217.606 82.2405 217.461 83.3774 217.317C83.5038 217.293 83.6048 217.389 83.6301 217.51C83.6553 217.63 83.5543 217.726 83.428 217.75C82.2911 217.894 81.1794 218.038 80.0425 218.182H80.0173ZM86.7881 217.317C86.6871 217.317 86.586 217.245 86.5608 217.125C86.5355 217.005 86.6366 216.909 86.7629 216.885C87.8998 216.741 89.0114 216.596 90.1483 216.428C90.2746 216.404 90.3757 216.5 90.401 216.62C90.4262 216.74 90.3251 216.837 90.1988 216.861C89.0619 217.005 87.9503 217.173 86.8134 217.317C86.8134 217.317 86.8134 217.317 86.7881 217.317ZM93.559 216.404C93.458 216.404 93.3569 216.332 93.3316 216.212C93.3064 216.092 93.4074 215.995 93.5337 215.971C94.6706 215.827 95.7823 215.659 96.9192 215.515C97.0455 215.491 97.1466 215.587 97.1718 215.707C97.1971 215.827 97.096 215.923 96.9697 215.947C95.8581 216.116 94.7212 216.26 93.5843 216.404H93.559ZM100.305 215.467C100.204 215.467 100.102 215.395 100.077 215.275C100.052 215.154 100.153 215.058 100.279 215.034C101.416 214.866 102.528 214.722 103.665 214.554C103.791 214.53 103.892 214.626 103.917 214.746C103.943 214.866 103.842 214.962 103.715 214.986C102.604 215.154 101.467 215.299 100.33 215.467H100.305ZM107.05 214.481C106.949 214.481 106.848 214.409 106.823 214.289C106.798 214.169 106.899 214.049 107.025 214.049C108.162 213.881 109.273 213.712 110.385 213.544C110.511 213.52 110.638 213.616 110.638 213.736C110.663 213.857 110.562 213.977 110.436 213.977C109.324 214.145 108.187 214.313 107.05 214.481C107.075 214.481 107.075 214.481 107.05 214.481ZM0.232219 214.001C0.206955 214.001 0.206952 214.001 0.181687 214.001C0.0553651 213.977 -0.0204235 213.857 0.00484092 213.736C0.232221 212.703 0.737509 211.718 1.52071 210.78C1.5965 210.684 1.74808 210.684 1.84914 210.756C1.9502 210.829 1.9502 210.973 1.87441 211.069C1.11647 211.934 0.636447 212.871 0.434332 213.833C0.434332 213.929 0.333277 214.001 0.232219 214.001ZM113.796 213.496C113.695 213.496 113.594 213.424 113.568 213.304C113.543 213.184 113.644 213.064 113.745 213.064C114.882 212.895 115.994 212.727 117.105 212.559C117.232 212.535 117.358 212.631 117.358 212.727C117.383 212.847 117.282 212.967 117.181 212.967C116.07 213.136 114.933 213.304 113.821 213.472C113.821 213.496 113.821 213.496 113.796 213.496ZM120.541 212.463C120.44 212.463 120.339 212.391 120.314 212.27C120.289 212.15 120.39 212.03 120.491 212.03C121.628 211.862 122.739 211.67 123.851 211.501C123.977 211.477 124.104 211.574 124.104 211.67C124.129 211.79 124.028 211.91 123.927 211.91C122.815 212.078 121.704 212.246 120.567 212.439C120.567 212.463 120.541 212.463 120.541 212.463ZM127.262 211.405C127.161 211.405 127.06 211.333 127.034 211.213C127.009 211.093 127.11 210.973 127.211 210.973C128.348 210.804 129.46 210.612 130.571 210.444C130.698 210.42 130.824 210.492 130.824 210.612C130.849 210.732 130.773 210.853 130.647 210.853C129.536 211.021 128.424 211.213 127.287 211.381C127.287 211.405 127.287 211.405 127.262 211.405ZM134.007 210.324C133.906 210.324 133.805 210.252 133.78 210.132C133.755 210.011 133.83 209.891 133.957 209.891C135.094 209.699 136.231 209.531 137.317 209.339C137.443 209.314 137.57 209.387 137.57 209.507C137.595 209.627 137.519 209.747 137.393 209.747C136.281 209.915 135.169 210.108 134.033 210.3C134.033 210.324 134.033 210.324 134.007 210.324ZM140.728 209.242C140.627 209.242 140.526 209.17 140.5 209.074C140.475 208.954 140.551 208.834 140.677 208.834C141.814 208.642 142.951 208.449 144.037 208.281C144.164 208.257 144.29 208.329 144.29 208.449C144.315 208.569 144.239 208.69 144.113 208.69C143.027 208.882 141.89 209.05 140.753 209.242C140.753 209.242 140.753 209.242 140.728 209.242ZM4.224 208.978C4.1482 208.978 4.07241 208.954 4.04715 208.882C3.97136 208.786 3.99662 208.642 4.09767 208.569C4.95666 207.993 5.96725 207.44 7.07888 206.935C7.17994 206.887 7.33152 206.935 7.38205 207.031C7.43258 207.128 7.38205 207.272 7.28099 207.32C6.19462 207.824 5.20931 208.377 4.35032 208.93C4.29979 208.954 4.27452 208.978 4.224 208.978ZM147.473 208.113C147.372 208.113 147.271 208.041 147.246 207.945C147.221 207.824 147.296 207.704 147.423 207.704C148.585 207.512 149.697 207.32 150.783 207.128C150.909 207.103 151.036 207.176 151.036 207.296C151.061 207.416 150.985 207.536 150.859 207.536C149.772 207.728 148.661 207.921 147.499 208.113H147.473ZM154.194 206.959C154.093 206.959 153.992 206.887 153.966 206.791C153.941 206.671 154.017 206.551 154.143 206.551C155.331 206.359 156.442 206.142 157.503 205.974C157.63 205.95 157.756 206.022 157.756 206.142C157.781 206.262 157.705 206.383 157.579 206.383C156.518 206.575 155.406 206.767 154.219 206.959C154.219 206.959 154.219 206.959 154.194 206.959ZM10.3127 206.07C10.2117 206.07 10.1359 206.022 10.1106 205.926C10.0601 205.806 10.1359 205.686 10.2369 205.638C11.2475 205.277 12.3339 204.941 13.496 204.604C13.6224 204.58 13.7487 204.628 13.774 204.748C13.7992 204.869 13.7487 204.989 13.6224 205.013C12.4855 205.349 11.3991 205.686 10.3885 206.046C10.3633 206.07 10.338 206.07 10.3127 206.07ZM160.914 205.806C160.813 205.806 160.712 205.734 160.687 205.638C160.661 205.517 160.737 205.397 160.863 205.397C162.152 205.181 163.264 204.965 164.224 204.796C164.35 204.772 164.476 204.844 164.476 204.965C164.501 205.085 164.426 205.205 164.299 205.205C163.339 205.373 162.202 205.565 160.939 205.806C160.939 205.806 160.939 205.806 160.914 205.806ZM167.66 204.604C167.559 204.604 167.457 204.532 167.432 204.436C167.407 204.316 167.483 204.196 167.609 204.172C167.836 204.124 167.963 204.099 167.988 204.099C168.114 204.075 168.266 204.172 168.266 204.316C168.266 204.484 168.241 204.508 167.685 204.604C167.685 204.604 167.685 204.604 167.66 204.604ZM16.8562 204.196C16.7551 204.196 16.6541 204.124 16.6288 204.027C16.6036 203.907 16.6794 203.787 16.8057 203.763C17.8668 203.523 19.0037 203.282 20.1406 203.042C20.2669 203.018 20.3932 203.09 20.4185 203.21C20.4438 203.33 20.368 203.451 20.2416 203.475C19.0795 203.691 17.9678 203.931 16.9067 204.196C16.8815 204.196 16.8562 204.196 16.8562 204.196ZM23.5513 202.898C23.4502 202.898 23.3492 202.826 23.3239 202.73C23.2986 202.609 23.3744 202.489 23.5008 202.489C24.5871 202.321 25.724 202.129 26.8862 201.985C27.0125 201.961 27.1136 202.057 27.1388 202.177C27.1641 202.297 27.063 202.393 26.9367 202.417C25.7746 202.585 24.6629 202.754 23.5765 202.922C23.5765 202.898 23.5513 202.898 23.5513 202.898ZM30.2969 201.961C30.1958 201.961 30.0948 201.888 30.0695 201.768C30.0442 201.648 30.1453 201.552 30.2716 201.528C31.3833 201.408 32.5454 201.288 33.6823 201.168C33.8086 201.168 33.9097 201.24 33.935 201.36C33.935 201.48 33.8592 201.576 33.7328 201.6C32.5959 201.696 31.459 201.816 30.3474 201.961C30.3222 201.961 30.3221 201.961 30.2969 201.961ZM37.1183 201.312C36.992 201.312 36.8909 201.216 36.8909 201.119C36.8909 200.999 36.9667 200.903 37.093 200.879C39.2152 200.735 40.529 200.663 40.529 200.663C40.6553 200.663 40.7564 200.759 40.7564 200.879C40.7564 200.999 40.6553 201.095 40.529 201.095C40.529 201.095 39.2405 201.168 37.1183 201.312Z" fill="#AFCDFB"/>
<path d="M175.264 215.971L203.257 200.879L177.714 202.321L179.685 206.43L174.405 211.982L175.264 215.971Z" fill="#AFCDFB"/>
<path d="M203.257 200.879L173.925 205.998L152.552 220.129L203.257 200.879Z" fill="white"/>
<path d="M177.715 202.321L203.257 200.879L176.527 193.453L177.715 202.321Z" fill="white"/>
<path d="M326.698 17.6801L358.481 22.4625L337.562 8.45166L336.425 12.8256L328.643 14.0512L326.698 17.6801Z" fill="#AFCDFB"/>
<path d="M358.481 22.463L332.181 9.07696L306.234 7.4668L358.481 22.463Z" fill="white"/>
<path d="M337.562 8.45187L358.481 22.4628L342.463 0.80957L337.562 8.45187Z" fill="white"/>
<path d="M422.956 140.174C422.956 140.174 416.463 140.606 411.688 151.709C406.863 162.909 417.651 162.788 414.013 169.926C410.375 177.064 419.243 181.317 421.946 187.157C424.649 192.997 438.216 207.08 439.277 213.521C440.364 219.937 452.415 206.84 452.415 206.84C452.415 206.84 464.668 194.391 460.272 187.157C453.021 175.237 459.312 172.642 459.085 165.985C458.857 159.352 445.593 133.108 422.956 140.174Z" fill="#233862"/>
<path d="M419.42 180.02C419.42 180.02 394.332 190.426 389.557 190.234C384.782 190.041 355.425 181.726 355.425 181.726L356.183 186.533C356.183 186.533 378.845 198.933 386.778 199.63C394.585 200.327 421.264 192.973 423.841 191.411C426.393 189.849 426.923 181.582 419.42 180.02Z" fill="#FFAD76"/>
<path d="M417.399 191.411C419.698 192.925 422.603 194.199 426.216 194.992C439.833 197.972 445.038 187.037 446.983 179.539C445.139 178.529 443.371 178.313 442.385 178.193C441.4 178.073 440.364 178.001 439.505 177.977C437.989 176.871 435.69 172.305 435.185 165.24L434.553 165.408L423.841 168.195C423.841 168.195 424.321 171.44 424.574 174.492C424.751 176.895 425.079 178.289 424.599 178.842C423.765 179.01 422.957 180.019 422.957 180.019C422.831 180.26 419.723 185.114 417.399 191.411Z" fill="#FFB27D"/>
<path d="M423.866 168.172C423.866 168.172 424.371 171.416 424.599 174.468C430.662 173.892 433.492 168.388 434.603 165.36L423.866 168.172Z" fill="#ED985F"/>
<path d="M422.047 171.224C422.047 171.224 436.473 170.479 435.841 161.923C435.21 153.392 436.65 147.552 427.403 147.672C418.182 147.792 416.615 151.181 416.11 154.065C415.605 156.948 418.283 171.2 422.047 171.224Z" fill="#FFB27D"/>
<path d="M451.127 219.313C452.44 212.968 456.685 187.686 452.44 179.539C450.924 176.607 444.937 176.343 438.368 176.607C436.322 177.857 428.54 182.591 425.332 182.015C425.306 182.015 425.23 181.99 425.155 181.966C423.639 181.606 423.386 179.707 424.624 178.842C424.624 178.842 421.087 179.443 417.045 180.164C414.771 180.573 408.607 183.601 408.607 183.601C408.607 183.601 411.714 188.936 416.262 190.762C415.478 197.371 416.641 200.279 423.841 215.564C429.93 228.469 423.007 240.077 423.007 240.077C423.007 240.077 458.857 267.498 459.06 253.535C459.236 243.009 449.459 227.388 451.127 219.313Z" fill="url(#paint4_linear_385_4542)"/>
<path d="M421.264 269.877C419.318 269.66 417.55 268.651 416.464 267.089C416.287 266.848 416.11 266.584 415.908 266.296C411.815 260.408 410.248 242.408 401.052 223.254C398.804 218.591 390.795 217.75 388.597 212.463C388.597 212.463 383.216 195.352 398.905 194.847C414.594 194.343 440.945 242.432 441.374 247.478C441.778 252.381 451.758 273.169 421.264 269.877Z" fill="#233862"/>
<path d="M358.861 269.492H381.194C381.194 269.492 382.028 266.103 380.563 263.796C379.274 261.754 379.754 260.6 380.714 258.894C379.704 259.278 378.39 259.639 376.95 259.567C375.838 259.495 374.651 259.014 373.615 258.461C372.655 259.495 368.537 263.941 367.248 264.83C365.834 265.815 359.315 265.479 358.861 269.492Z" fill="#172B4C"/>
<path d="M448.776 186.172C448.776 186.172 451.682 211.334 432.835 216.621C413.987 221.884 408.631 193.454 423.841 191.411C439.05 189.368 448.776 186.172 448.776 186.172Z" fill="url(#paint5_linear_385_4542)"/>
<path d="M388.092 199.822C386.753 209.411 381.498 239.692 372.226 254.472C369.245 259.23 379.755 261.898 379.805 261.898C381.22 261.537 383.57 259.399 384.656 258.485C392.185 252.045 407.444 233.78 407.444 219.12C407.444 211.983 407.571 198.332 402.114 194.872C398.779 192.733 388.622 196.001 388.092 199.822Z" fill="#233862"/>
<path d="M434.578 269.492C434.578 269.492 433.744 268.387 432.304 266.32C430.586 263.845 428.691 258.966 426.367 252.718C423.942 246.157 421.061 238.106 417.474 229.694C416.362 227.099 415.2 224.479 413.937 221.86C411.688 217.198 405.549 217.847 403.351 212.559C403.351 212.559 394.812 194.271 410.501 193.766C426.19 193.261 456.027 242.696 457.745 247.502C459.665 252.742 468.811 274.515 434.578 269.492Z" fill="#2B478B"/>
<path d="M375.257 269.492H397.591C397.591 269.492 398.424 266.103 396.959 263.796C395.671 261.754 396.151 260.6 397.111 258.894C396.1 259.278 394.786 259.639 393.346 259.567C392.235 259.495 391.047 259.014 390.011 258.461C389.051 259.495 384.933 263.941 383.645 264.83C382.23 265.815 375.712 265.479 375.257 269.492Z" fill="#233862"/>
<path d="M426.393 252.718C423.967 246.157 421.087 238.106 417.5 229.695C418.434 223.326 420.456 217.775 423.866 215.54C423.866 215.54 432.103 239.884 426.393 252.718Z" fill="#23407A"/>
<path d="M401.128 199.125C399.789 208.714 397.894 239.692 388.622 254.448C385.641 259.206 396.151 261.874 396.202 261.874C397.616 261.513 399.966 259.374 401.052 258.461C408.581 252.02 423.841 233.756 423.841 219.096C423.841 211.958 415.023 198.885 409.566 195.424C406.231 193.309 401.684 195.328 401.128 199.125Z" fill="#2B478B"/>
<path d="M373.464 173.963C373.464 173.963 372.327 171.2 370.23 171.368C368.158 171.536 349.235 173.963 349.235 173.963C349.235 173.963 351.433 174.468 352.267 175.838L360.983 200.303H383.367L373.464 173.963Z" fill="#EBF3FA"/>
<path d="M447.008 179.539C447.008 179.539 415.301 190.642 410.526 190.425C407.444 190.281 381.851 181.726 381.851 181.726L379.552 185.859C379.552 185.859 404.463 201.096 411.309 201.024C424.826 200.88 447.665 192.973 450.217 191.435C452.768 189.897 454.486 181.101 447.008 179.539Z" fill="#FFBF94"/>
<path d="M381.851 181.702C381.851 181.702 379.552 178.337 377.253 178.241C374.954 178.145 371.013 179.731 369.648 179.971C368.284 180.212 364.444 181.413 365.581 183.192C366.718 184.97 372.023 185.379 374.322 184.97C376.621 184.562 379.527 185.835 379.527 185.835L381.851 181.702Z" fill="#FFBF94"/>
<path d="M377.885 178.337C377.885 178.337 374.247 176.751 373.211 176.463C372.175 176.174 372.377 176.463 372.68 177.4C372.983 178.337 374.853 179.226 374.853 179.539C374.853 179.851 377.885 178.337 377.885 178.337Z" fill="#FFBF94"/>
<path d="M419.343 166.322C419.343 166.322 420.708 165.817 424.548 166.105C424.548 166.105 424.346 167.524 421.516 167.668C419.899 167.74 419.343 166.322 419.343 166.322Z" fill="white"/>
<path d="M430.662 185.018C430.662 185.018 433.492 193.55 443.244 195.496C443.244 195.496 459.338 190.786 451.329 180.356C451.329 180.356 443.421 174.756 430.662 185.018Z" fill="url(#paint6_linear_385_4542)"/>
<path d="M349.235 173.963C349.235 173.963 347.138 174.732 348.73 177.328L369.194 174.732C369.194 174.732 368.486 171.728 370.078 171.392L349.235 173.963Z" fill="white"/>
<path d="M356.562 180.356C357.042 178.505 357.017 178.049 355.93 176.919C355.198 176.174 354.086 178.025 353.505 179.13C353.303 178.626 352.924 177.832 352.823 177.784C352.646 177.736 353.075 180.26 353.075 180.26C353.075 180.356 353.05 180.476 353.075 180.572C353.075 180.572 352.191 184.321 356.057 186.34L355.324 184.273C355.753 184.249 356.082 182.23 356.562 180.356Z" fill="#FFAD76"/>
<path d="M421.492 149.546C421.492 149.546 424.523 148.537 426.014 151.493C427.504 154.449 427.959 161.514 433.846 162.091C439.758 162.668 439.985 150.123 439.985 150.123L425.205 144.572L417.399 149.258L421.492 149.546Z" fill="#233862"/>
<path d="M421.491 149.546C421.491 149.546 418.156 149.618 417.398 152.286C416.64 154.954 417.828 159.928 415.984 160.289C414.139 160.649 412.472 151.998 416.034 149.186C419.596 146.374 421.491 149.546 421.491 149.546Z" fill="#233862"/>
<path d="M160.232 103.259C160.232 103.259 163.567 102.058 163.946 101.241C164.325 100.423 165.411 100.063 166.75 99.4862C168.064 98.9095 168.872 97.876 169.049 98.0202C169.251 98.1644 169.277 98.8854 168.746 99.4141C168.215 99.9428 165.967 103.74 165.133 104.173C164.274 104.581 160.232 103.259 160.232 103.259Z" fill="#FFB27D"/>
<path d="M505.95 269.347H484.526C483.389 268.41 485.309 266.319 487.355 266.175C488.24 266.103 489.351 266.295 490.614 266.535C490.918 262.81 492.585 246.084 498.926 246.757C506.051 247.502 498.926 254.135 496.905 258.052C495.415 260.96 493.848 265.118 493.116 267.088C493.697 267.208 494.303 267.329 494.909 267.425C495.844 264.661 499.381 255.384 503.853 255.913C509.108 256.538 506.986 260.263 503.272 262.474C500.543 264.108 497.183 266.415 495.591 267.521C496.93 267.737 498.345 267.881 499.785 267.833C503.449 267.761 505.242 268.795 505.95 269.347Z" fill="#82B378"/>
<path d="M25.9771 269.757C25.9771 269.757 17.842 248.488 12.1322 250.314C6.39721 252.117 25.9771 269.757 25.9771 269.757Z" fill="#82B378"/>
<path d="M22.8697 269.757C22.1876 269.757 9.17637 256.924 8.31738 260.288C7.43313 263.653 22.8697 269.757 22.8697 269.757Z" fill="#82B378"/>
<path d="M36.7143 269.756C36.7143 269.756 31.333 265.07 24.5369 266.296C17.7407 267.521 14.8353 268.843 10.5656 267.93C6.29594 267.017 4.1232 269.756 4.1232 269.756H36.7143Z" fill="#82B378"/>
<path d="M201.286 261.272H161.368C158.336 261.272 155.886 258.941 155.886 256.057V247.358C155.886 244.474 158.336 242.143 161.368 242.143H201.286C204.318 242.143 206.768 244.474 206.768 247.358V256.057C206.743 258.941 204.292 261.272 201.286 261.272Z" fill="#FCECDB"/>
<path d="M193.859 246.901H161.975C161.621 246.901 161.318 246.613 161.318 246.276C161.318 245.94 161.621 245.651 161.975 245.651H193.859C194.212 245.651 194.516 245.94 194.516 246.276C194.516 246.613 194.212 246.901 193.859 246.901Z" fill="#EFCBAB"/>
<path d="M167.634 249.546H161.975C161.621 249.546 161.318 249.257 161.318 248.921C161.318 248.584 161.621 248.296 161.975 248.296H167.634C167.988 248.296 168.291 248.584 168.291 248.921C168.291 249.281 167.988 249.546 167.634 249.546Z" fill="#EFCBAB"/>
<path d="M185.446 249.546H169.883C169.529 249.546 169.226 249.257 169.226 248.921C169.226 248.584 169.529 248.296 169.883 248.296H185.446C185.799 248.296 186.103 248.584 186.103 248.921C186.103 249.281 185.799 249.546 185.446 249.546Z" fill="#EFCBAB"/>
<path d="M193.859 254.472H161.975C161.621 254.472 161.318 254.183 161.318 253.847C161.318 253.51 161.621 253.222 161.975 253.222H193.859C194.212 253.222 194.516 253.51 194.516 253.847C194.516 254.183 194.212 254.472 193.859 254.472Z" fill="#EFCBAB"/>
<path d="M173.546 257.116H161.975C161.621 257.116 161.318 256.828 161.318 256.491C161.318 256.155 161.621 255.866 161.975 255.866H173.546C173.9 255.866 174.203 256.155 174.203 256.491C174.203 256.852 173.925 257.116 173.546 257.116Z" fill="#EFCBAB"/>
<path d="M187.644 257.116H176.073C175.719 257.116 175.416 256.828 175.416 256.491C175.416 256.155 175.719 255.866 176.073 255.866H187.644C187.997 255.866 188.301 256.155 188.301 256.491C188.275 256.852 187.997 257.116 187.644 257.116Z" fill="#EFCBAB"/>
<defs>
<linearGradient id="paint0_linear_385_4542" x1="179.069" y1="68.6941" x2="181.857" y2="114.019" gradientUnits="userSpaceOnUse">
<stop stop-color="#F16237"/>
<stop offset="1" stop-color="#C13014"/>
</linearGradient>
<linearGradient id="paint1_linear_385_4542" x1="180.181" y1="81.2608" x2="183.787" y2="125.017" gradientUnits="userSpaceOnUse">
<stop stop-color="#938581"/>
<stop offset="1" stop-color="#C13014"/>
</linearGradient>
<linearGradient id="paint2_linear_385_4542" x1="111.657" y1="78.2265" x2="112.997" y2="89.2167" gradientUnits="userSpaceOnUse">
<stop stop-color="#F16237"/>
<stop offset="1" stop-color="#C13014"/>
</linearGradient>
<linearGradient id="paint3_linear_385_4542" x1="67.5231" y1="75.1207" x2="68.7969" y2="90.1386" gradientUnits="userSpaceOnUse">
<stop stop-color="#F16237"/>
<stop offset="1" stop-color="#C13014"/>
</linearGradient>
<linearGradient id="paint4_linear_385_4542" x1="431.022" y1="205.922" x2="436.937" y2="254.019" gradientUnits="userSpaceOnUse">
<stop stop-color="#F16237"/>
<stop offset="1" stop-color="#C13014"/>
</linearGradient>
<linearGradient id="paint5_linear_385_4542" x1="430.082" y1="197.461" x2="431.392" y2="216.121" gradientUnits="userSpaceOnUse">
<stop stop-color="#F16237"/>
<stop offset="1" stop-color="#C13014"/>
</linearGradient>
<linearGradient id="paint6_linear_385_4542" x1="440.837" y1="184.881" x2="441.395" y2="194.899" gradientUnits="userSpaceOnUse">
<stop stop-color="#F16237"/>
<stop offset="1" stop-color="#C13014"/>
</linearGradient>
</defs>
</svg>
