<svg width="188" height="43" viewBox="0 0 188 43" fill="none" xmlns="http://www.w3.org/2000/svg">
<mask id="mask0_513_3020" style="mask-type:luminance" maskUnits="userSpaceOnUse" x="0" y="10" width="22" height="15">
<path d="M0.144531 10.1185H21.7956V24.7851H0.144531V10.1185Z" fill="white"/>
</mask>
<g mask="url(#mask0_513_3020)">
<path d="M20.7643 20.1185C21.0352 20.0508 20.9779 19.6497 20.7018 19.6602L12.655 19.2435C12.6185 19.1706 12.5716 19.1029 12.5248 19.0352L10.2643 15.7383L6.89455 10.832C6.7383 10.6029 6.38413 10.7904 6.4883 11.0508C6.4883 11.0508 10.7695 17.655 8.06642 20.5716C6.66538 22.0872 0.425796 23.6914 0.425796 23.6914C0.160172 23.7747 0.233088 24.1654 0.50913 24.1445C2.14975 24.0195 3.78517 23.8997 5.4258 23.7852C7.01434 23.6758 8.73309 23.7435 10.2748 23.3425C10.4154 23.306 10.556 23.2643 10.6914 23.2227C11.4727 22.9779 12.2018 22.6081 12.9414 22.2643C13.6654 21.9206 14.3164 21.7331 15.082 21.5456C15.8841 21.3477 16.6914 21.1393 17.4935 20.9414C18.5873 20.6654 19.6758 20.3893 20.7643 20.1185Z" fill="#85C536"/>
</g>
<path d="M12.8845 15.7086C12.3428 16.844 12.7335 18.167 13.7595 18.6565C14.7907 19.1513 16.0668 18.6253 16.6137 17.4899C17.1605 16.3492 16.7647 15.0315 15.7387 14.5367C14.7074 14.0472 13.4314 14.568 12.8845 15.7086Z" fill="#85C536"/>
<mask id="mask1_513_3020" style="mask-type:luminance" maskUnits="userSpaceOnUse" x="11" y="0" width="18" height="20">
<path d="M11.1289 0.00128174H28.4622V19.4544H11.1289V0.00128174Z" fill="white"/>
</mask>
<g mask="url(#mask1_513_3020)">
<path d="M22.5612 18.4284C22.7122 18.6679 23.0716 18.4909 22.9779 18.2304L20.8893 10.4648C20.9466 10.4075 20.9987 10.3398 21.0508 10.2773L23.4935 7.11065L27.1289 2.39711C27.2956 2.17836 27.0039 1.89711 26.7904 2.07419C26.7904 2.07419 21.8216 8.18357 18.207 6.5169C16.332 5.65753 12.8737 0.225233 12.8737 0.225233C12.7122 0.00127479 12.3581 0.193984 12.4675 0.449192C13.0925 1.96482 13.7122 3.48044 14.3268 5.00128C14.9206 6.47523 15.3893 8.12628 16.2487 9.47003C16.3268 9.58982 16.4102 9.70961 16.4935 9.8294C16.9674 10.4909 17.5456 11.0742 18.1029 11.6679C18.6497 12.2461 19.03 12.8086 19.4466 13.4752C19.8841 14.1836 20.3268 14.8815 20.7695 15.5846C21.3685 16.5325 21.9674 17.4804 22.5612 18.4284Z" fill="#F14624"/>
</g>
<path d="M24.3317 9.59009C23.0765 9.42343 21.9411 10.2047 21.7901 11.3297C21.639 12.4599 22.5348 13.512 23.7848 13.6786C25.0401 13.8453 26.1755 13.0641 26.3265 11.9338C26.4776 10.8036 25.5817 9.75676 24.3317 9.59009Z" fill="#F14624"/>
<path d="M24.7283 19.6152C24.5513 19.8288 24.8273 20.1204 25.0513 19.9486L31.8013 15.5684C31.8742 15.5996 31.9523 15.6309 32.0304 15.6621L35.8013 17.0006L41.4158 18.9954C41.6763 19.0892 41.8533 18.7246 41.619 18.5788C41.619 18.5788 34.2648 15.7454 34.7336 11.7975C34.9731 9.75065 39.0773 4.79231 39.0773 4.79231C39.2492 4.56835 38.9523 4.29231 38.744 4.4746C37.494 5.5371 36.2388 6.5944 34.9783 7.64648C33.7596 8.66731 32.3273 9.62565 31.3169 10.8548C31.2231 10.9642 31.1346 11.0788 31.0461 11.1934C30.5617 11.8496 30.1867 12.5788 29.7961 13.2923C29.4106 13.9902 28.994 14.5267 28.4836 15.1256C27.9523 15.7611 27.4211 16.3965 26.8898 17.0319C26.1711 17.8965 25.4471 18.7559 24.7283 19.6152Z" fill="#EC058E"/>
<path d="M33.6999 18.5629C33.4707 17.3233 32.3718 16.4847 31.252 16.6879C30.127 16.8962 29.403 18.0681 29.6322 19.3077C29.8613 20.5472 30.9551 21.3858 32.0801 21.1827C33.1999 20.9743 33.9238 19.8024 33.6999 18.5629Z" fill="#EC058E"/>
<mask id="mask2_513_3020" style="mask-type:luminance" maskUnits="userSpaceOnUse" x="23" y="22" width="21" height="16">
<path d="M23.9414 22.0052H43.1393V37.9271H23.9414V22.0052Z" fill="white"/>
</mask>
<g mask="url(#mask2_513_3020)">
<path d="M24.2695 22.0364C24.0091 21.9323 23.8216 22.2864 24.0508 22.4427L30.3112 27.5C30.3008 27.5833 30.2956 27.6666 30.2904 27.75L30.181 31.7448L30.0195 37.6875C30.0091 37.9635 30.4102 38.0208 30.4779 37.75C30.4779 37.75 30.905 29.8958 34.806 29.1198C36.832 28.7187 42.8268 31.0781 42.8268 31.0781C43.0925 31.1719 43.2643 30.8073 43.0247 30.6614C41.6289 29.8021 40.2331 28.9375 38.8372 28.0677C37.4883 27.2239 36.1393 26.1666 34.655 25.5833C34.5195 25.5312 34.3789 25.4791 34.2435 25.4375C33.4675 25.1771 32.6602 25.0469 31.8581 24.8958C31.0716 24.7448 30.4362 24.5104 29.707 24.2187C28.9362 23.9062 28.1654 23.5989 27.3945 23.2916C26.3529 22.875 25.3112 22.4531 24.2695 22.0364Z" fill="#98198E"/>
</g>
<path d="M28.0429 30.2278C29.1523 29.6289 29.6106 28.3268 29.069 27.3268C28.5273 26.3268 27.1835 25.9987 26.0742 26.5976C24.9648 27.2018 24.5012 28.4987 25.0429 29.4987C25.5898 30.5039 26.9283 30.8268 28.0429 30.2278Z" fill="#98198E"/>
<mask id="mask3_513_3020" style="mask-type:luminance" maskUnits="userSpaceOnUse" x="8" y="22" width="14" height="21">
<path d="M8.47656 22.0872H21.8516V42.9987H8.47656V22.0872Z" fill="white"/>
</mask>
<g mask="url(#mask3_513_3020)">
<path d="M21.8151 22.3476C21.8359 22.0716 21.4401 21.9986 21.362 22.2643L18.4766 29.7747C18.3984 29.7903 18.3151 29.8059 18.237 29.832L14.3984 30.9622L8.67969 32.6393C8.41406 32.7226 8.48698 33.1132 8.76302 33.0976C8.76302 33.0976 16.3828 31.0716 18.3255 34.5403C19.3359 36.3372 18.9349 42.7591 18.9349 42.7591C18.9297 43.0403 19.3307 43.0872 19.3932 42.8216C19.7786 41.2278 20.1745 39.6341 20.5703 38.0455C20.9557 36.4986 21.5495 34.8893 21.6484 33.3007C21.6536 33.1549 21.6589 33.0143 21.6641 32.8684C21.6693 32.0507 21.5443 31.2434 21.4401 30.4361C21.3411 29.6445 21.362 28.9674 21.4193 28.1861C21.4818 27.358 21.5339 26.5299 21.5911 25.7018C21.6641 24.5872 21.7422 23.4674 21.8151 22.3476Z" fill="#51ADE5"/>
</g>
<path d="M15.1801 28.4643C16.0968 29.334 17.4718 29.3705 18.2635 28.5476C19.0499 27.7195 18.9405 26.3445 18.0291 25.4747C17.1124 24.6101 15.7322 24.5736 14.9458 25.3965C14.1593 26.2195 14.2635 27.5945 15.1801 28.4643Z" fill="#51ADE5"/>
<path d="M52.5586 28.9362H55.8034L57.2669 18.4206L58.7409 28.9362H61.9805L64.6628 11.1549H61.5794L60.2617 22.0195L58.7409 11.1549H55.8763L54.3294 22.0195L53.0378 11.1549H49.8711L52.5586 28.9362ZM69.5794 29.1393C72.0117 29.1393 73.7826 26.8789 73.7826 22.5299V21.7174C73.7826 17.3581 72.0117 15.1081 69.5794 15.1081C67.1471 15.1081 65.3763 17.3581 65.3763 21.7174V22.5299C65.3763 26.8789 67.1471 29.1393 69.5794 29.1393ZM69.5794 26.4778C68.819 26.4778 68.3659 25.2122 68.3659 22.5768V21.6706C68.3659 18.9778 68.819 17.7643 69.5794 17.7643C70.3398 17.7643 70.7982 18.9778 70.7982 21.6706V22.5768C70.7982 25.2122 70.3398 26.4778 69.5794 26.4778ZM75.1992 28.8841H78.1888V19.3112C78.1888 18.3216 78.5951 17.7435 79.2044 17.7435C79.8138 17.7435 80.168 18.3216 80.168 19.3112V28.8841H83.1523V19.3112C83.1523 18.3216 83.5638 17.7435 84.168 17.7435C84.7721 17.7435 85.1315 18.3216 85.1315 19.3112V28.8841H88.1211V18.6497C88.1211 16.2695 86.7513 15.056 85.3086 15.056C84.1419 15.056 83.4076 15.8945 82.8763 16.6289C82.3919 15.7383 81.7357 15.056 80.6003 15.056C79.4805 15.056 78.7982 15.7643 78.1888 16.9049V15.3112H75.1992V28.8841ZM94.0482 29.1393C95.1888 29.1393 95.9961 28.7851 97.0378 28.0976L96.8086 25.3685C95.9232 25.9726 95.3346 26.3476 94.4284 26.3476C93.4388 26.3476 92.5534 25.6185 92.3711 23.4935H97.3659V21.9206C97.3659 17.4622 95.8659 15.1081 93.5169 15.1081C91.2617 15.1081 89.3867 17.4362 89.3867 21.7903V22.4518C89.3867 26.832 91.5117 29.1393 94.0482 29.1393ZM92.3503 21.1341C92.3971 18.7331 92.8294 17.7643 93.5169 17.7643C94.2201 17.7643 94.5586 18.8528 94.5586 21.1341H92.3503ZM98.5794 28.8841H101.564V19.2851C101.564 18.2956 102.001 17.7435 102.605 17.7435C103.215 17.7435 103.595 18.2956 103.595 19.2851V28.8841H106.59V18.6028C106.59 16.5247 105.699 15.056 103.98 15.056C102.783 15.056 102.105 15.8945 101.564 16.931V15.3112H98.5794V28.8841ZM116.158 29.1393C118.59 29.1393 120.361 26.8789 120.361 22.5299V21.7174C120.361 17.3581 118.59 15.1081 116.158 15.1081C113.725 15.1081 111.954 17.3581 111.954 21.7174V22.5299C111.954 26.8789 113.725 29.1393 116.158 29.1393ZM116.158 26.4778C115.397 26.4778 114.944 25.2122 114.944 22.5768V21.6706C114.944 18.9778 115.397 17.7643 116.158 17.7643C116.918 17.7643 117.376 18.9778 117.376 21.6706V22.5768C117.376 25.2122 116.918 26.4778 116.158 26.4778ZM122.105 28.8841H125.1V17.7435H126.647V15.3112H125.1V14.7799C125.1 13.9362 125.553 13.5351 126.288 13.5351C126.465 13.5351 126.517 13.5351 126.647 13.5612V11.082C126.34 10.9987 126.033 10.9778 125.527 10.9778C124.413 10.9778 123.527 11.2539 122.949 11.8372C122.387 12.3997 122.105 13.207 122.105 14.3216V15.3112H121.272V17.7435H122.105V28.8841ZM131.704 28.8841H134.595C138.548 28.8841 140.803 26.0195 140.803 20.3268V19.7122C140.803 14.0195 138.548 11.1549 134.595 11.1549H131.704V28.8841ZM134.928 13.9935C136.392 13.9935 137.663 15.2799 137.663 19.7122V20.3268C137.663 24.7539 136.392 26.0456 134.928 26.0456H134.798V13.9935H134.928ZM146.579 29.1393C147.72 29.1393 148.527 28.7851 149.569 28.0976L149.34 25.3685C148.454 25.9726 147.866 26.3476 146.96 26.3476C145.97 26.3476 145.085 25.6185 144.902 23.4935H149.897V21.9206C149.897 17.4622 148.397 15.1081 146.048 15.1081C143.793 15.1081 141.918 17.4362 141.918 21.7903V22.4518C141.918 26.832 144.043 29.1393 146.579 29.1393ZM144.882 21.1341C144.928 18.7331 145.361 17.7643 146.048 17.7643C146.751 17.7643 147.085 18.8528 147.085 21.1341H144.882ZM153.465 29.1393C155.616 29.1393 157.262 27.6445 157.262 25.2851V25.2383C157.262 23.6914 156.73 22.6028 155.064 20.9831C153.668 19.6133 153.439 19.2643 153.439 18.7331C153.439 18.1706 153.85 17.7903 154.579 17.7903C155.288 17.7903 156.001 18.0716 156.632 18.3945V15.457C155.871 15.207 155.241 15.1081 154.408 15.1081C152.1 15.1081 150.553 16.5247 150.553 18.7799V18.832C150.553 20.5508 151.491 21.7695 152.861 23.1081C154.152 24.3789 154.382 24.8112 154.382 25.3685C154.382 26.0456 153.975 26.457 153.262 26.457C152.579 26.457 151.715 26.0976 150.71 25.5664V28.5091C151.569 28.8841 152.579 29.1393 153.465 29.1393ZM161.444 29.0664C162.048 29.0664 162.762 28.8581 163.22 28.6081V26.2278C162.965 26.3268 162.715 26.3737 162.486 26.3737C161.949 26.3737 161.647 26.1497 161.647 25.5403V17.7435H163.246V15.3112H161.647V11.8372H158.663V15.3112H157.845V17.7435H158.663V26.556C158.663 28.6081 160.027 29.0664 161.444 29.0664ZM164.486 14.0195H167.527V11.0247H164.486V14.0195ZM164.507 28.8841H167.501V15.3112H164.507V28.8841ZM169.194 28.8841H172.184V19.2851C172.184 18.2956 172.616 17.7435 173.22 17.7435C173.835 17.7435 174.21 18.2956 174.21 19.2851V28.8841H177.204V18.6028C177.204 16.5247 176.314 15.056 174.595 15.056C173.397 15.056 172.72 15.8945 172.184 16.931V15.3112H169.194V28.8841ZM182.491 23.3112L181.199 15.3112H178.236L181.048 28.4049L180.184 32.1758H183.095L186.85 15.3112H183.913L182.491 23.3112Z" stroke="white" stroke-width="0.411664"/>
<path d="M52.5703 28.9284H55.7995L57.2786 18.4284L58.737 28.9284H61.987L64.6745 11.1575H61.5703L60.2578 22.0117L58.737 11.1575H55.8828L54.3411 22.0117L53.0495 11.1575H49.8828L52.5703 28.9284Z" fill="#51ADE5"/>
<path d="M69.5872 29.1367C72.0247 29.1367 73.7956 26.8867 73.7956 22.5325V21.72C73.7956 17.3659 72.0247 15.095 69.5872 15.095C67.1497 15.095 65.3789 17.3659 65.3789 21.72V22.5325C65.3789 26.8867 67.1497 29.1367 69.5872 29.1367ZM69.5872 26.47C68.8164 26.47 68.3581 25.22 68.3581 22.5742V21.6575C68.3581 18.9909 68.8164 17.7617 69.5872 17.7617C70.3372 17.7617 70.7956 18.9909 70.7956 21.6575V22.5742C70.7956 25.22 70.3372 26.47 69.5872 26.47Z" fill="#51ADE5"/>
<path d="M75.1992 28.8854H78.1992V19.3021C78.1992 18.3229 78.5951 17.7396 79.1992 17.7396C79.8034 17.7396 80.1576 18.3229 80.1576 19.3021V28.8854H83.1576V19.3021C83.1576 18.3229 83.5534 17.7396 84.1784 17.7396C84.7826 17.7396 85.1367 18.3229 85.1367 19.3021V28.8854H88.1159V18.6562C88.1159 16.2604 86.7617 15.0521 85.3034 15.0521C84.1367 15.0521 83.4076 15.8854 82.8867 16.6146C82.3867 15.7396 81.7409 15.0521 80.5951 15.0521C79.4909 15.0521 78.8034 15.7604 78.1992 16.9062V15.3021H75.1992V28.8854Z" fill="#51ADE5"/>
<path d="M94.0456 29.1367C95.1914 29.1367 96.0039 28.7825 97.0456 28.095L96.8164 25.3659C95.9206 25.97 95.3372 26.345 94.4206 26.345C93.4414 26.345 92.5456 25.6159 92.3789 23.4909H97.3581V21.9284C97.3581 17.47 95.8789 15.095 93.5247 15.095C91.2539 15.095 89.3789 17.4284 89.3789 21.8034V22.4492C89.3789 26.845 91.5039 29.1367 94.0456 29.1367ZM92.3581 21.1367C92.3997 18.72 92.8372 17.7617 93.5247 17.7617C94.2331 17.7617 94.5456 18.845 94.5456 21.1367H92.3581Z" fill="#51ADE5"/>
<path d="M98.5781 28.8854H101.578V19.2812C101.578 18.3021 101.995 17.7396 102.599 17.7396C103.224 17.7396 103.599 18.3021 103.599 19.2812V28.8854H106.578V18.5937C106.578 16.5312 105.703 15.0521 103.974 15.0521C102.786 15.0521 102.099 15.8854 101.578 16.9271V15.3021H98.5781V28.8854Z" fill="#51ADE5"/>
<path d="M116.165 29.1367C118.603 29.1367 120.374 26.8867 120.374 22.5325V21.72C120.374 17.3659 118.603 15.095 116.165 15.095C113.728 15.095 111.957 17.3659 111.957 21.72V22.5325C111.957 26.8867 113.728 29.1367 116.165 29.1367ZM116.165 26.47C115.395 26.47 114.936 25.22 114.936 22.5742V21.6575C114.936 18.9909 115.395 17.7617 116.165 17.7617C116.915 17.7617 117.374 18.9909 117.374 21.6575V22.5742C117.374 25.22 116.915 26.47 116.165 26.47Z" fill="#51ADE5"/>
<path d="M122.115 28.8867H125.094V17.7409H126.656V15.3034H125.094V14.7825C125.094 13.9492 125.552 13.5325 126.302 13.5325C126.469 13.5325 126.531 13.5325 126.656 13.5534V11.0742C126.344 11.0117 126.031 10.97 125.531 10.97C124.427 10.97 123.531 11.2617 122.948 11.845C122.385 12.3867 122.115 13.1992 122.115 14.3242V15.3034H121.281V17.7409H122.115V28.8867Z" fill="#51ADE5"/>
<path d="M131.715 28.8867H134.59C138.548 28.8867 140.798 26.0325 140.798 20.3242V19.72C140.798 14.0117 138.548 11.1575 134.59 11.1575H131.715V28.8867ZM134.923 13.9909C136.402 13.9909 137.673 15.2825 137.673 19.72V20.3242C137.673 24.7617 136.402 26.0534 134.923 26.0534H134.798V13.9909H134.923Z" fill="#51ADE5"/>
<path d="M146.577 29.1367C147.723 29.1367 148.535 28.7825 149.577 28.095L149.348 25.3659C148.452 25.97 147.868 26.345 146.952 26.345C145.973 26.345 145.077 25.6159 144.91 23.4909H149.889V21.9284C149.889 17.47 148.41 15.095 146.056 15.095C143.785 15.095 141.91 17.4284 141.91 21.8034V22.4492C141.91 26.845 144.035 29.1367 146.577 29.1367ZM144.889 21.1367C144.931 18.72 145.368 17.7617 146.056 17.7617C146.764 17.7617 147.077 18.845 147.077 21.1367H144.889Z" fill="#51ADE5"/>
<path d="M153.464 29.1367C155.63 29.1367 157.276 27.6367 157.276 25.2825V25.2409C157.276 23.6992 156.734 22.595 155.068 20.9909C153.672 19.6159 153.443 19.2617 153.443 18.72C153.443 18.1784 153.839 17.7825 154.589 17.7825C155.297 17.7825 156.005 18.0742 156.63 18.4075V15.47C155.88 15.1992 155.234 15.095 154.401 15.095C152.109 15.095 150.547 16.5325 150.547 18.7825V18.8242C150.547 20.5534 151.484 21.7617 152.859 23.1159C154.151 24.3867 154.38 24.8034 154.38 25.3659C154.38 26.0534 153.984 26.4492 153.255 26.4492C152.589 26.4492 151.714 26.095 150.714 25.5742V28.5117C151.568 28.8867 152.589 29.1367 153.464 29.1367Z" fill="#51ADE5"/>
<path d="M161.448 29.0742C162.052 29.0742 162.76 28.8659 163.219 28.6159V26.22C162.969 26.3242 162.719 26.3867 162.49 26.3867C161.948 26.3867 161.656 26.1575 161.656 25.5325V17.7409H163.24V15.3034H161.656V11.845H158.656V15.3034H157.844V17.7409H158.656V26.5534C158.656 28.6159 160.031 29.0742 161.448 29.0742Z" fill="#51ADE5"/>
<path d="M164.484 14.0117H167.526V11.0325H164.484V14.0117ZM164.505 28.8867H167.505V15.3034H164.505V28.8867Z" fill="#51ADE5"/>
<path d="M169.195 28.8854H172.195V19.2812C172.195 18.3021 172.612 17.7396 173.216 17.7396C173.841 17.7396 174.216 18.3021 174.216 19.2812V28.8854H177.195V18.5937C177.195 16.5312 176.32 15.0521 174.591 15.0521C173.404 15.0521 172.716 15.8854 172.195 16.9271V15.3021H169.195V28.8854Z" fill="#51ADE5"/>
<path d="M182.501 23.3021L181.21 15.3021H178.23L181.043 28.4062L180.189 32.1771H183.105L186.855 15.3021H183.918L182.501 23.3021Z" fill="#51ADE5"/>
</svg>
